<svg viewBox=" 0 0 100 100 "><c i r c l e c x=" 50 " c y=" 50 " r=" 40 " stroke=" black " fill=" none "/><c i r c l e c x=" 35 " c y=" 40 " r=" 5 " fill=" black "/> <svg xmlns=" http :// www . w3 . org/ 2000/ svg " viewBox=" 0 0 24 24 " height=" 200px " width=" 200px "><path fill=" none " stroke=" black " stroke-width=". 3 " stroke-opacity=" 1 " filling=" 0 " d=" M12.1 1.2 L12.1 1.2 C13.9 1.5 15.5 2.1 16.9 3 C18.1 3.9 19.2 5.1 20.1 6.7 C21.2 8.7 21.6 11 21.3 13.1 C21 15.2 20.1 17.2 18.6 18.8 C17.2 20.3 15.3 21.3 12.9 21.6 C10.7 21.9 8.5 21.4 6.7 20.3 C5 19.2 3.7 17.7 2.8 15.9 C2 14.2 1.6 12.3 2 10.4 C2.3 8.5 3.2 6.7 4.7 5.2 C5.9 3.9 7.5 2.9 9.1 2.3 C10.6 1.7 11.4 1.5 12.1 1.2 L12.1 1.2 "/><path fill=" none " stroke=" black " stroke-width=". 3 " stroke-opacity=" 1 " filling=" 0 " d=" M12.1 3.9 L12.1 3.9 C14.1 4.2 15.8 4.7 17.3 5.7 C18.7 6.6 19.9 7.9 20.7 9.6 C21.5 11.3 21.7 13.1 21.3 14.9 C20.9 16.7 19.9 18.4 18.4 19.5 C16.9 20.7 15 21.3 12.9 21.3 C10.8 21.3 8.9 20.7 7.3 19.5 C5.7 18.4 4.6 16.7 4.1 14.9 C3.6 13.1 3.7 11.3 4.5 9.6 C5.2 7.9 6.3 6.6 7.7 5.7 C9.1 4.7 10.7 4.2 12.1 3.9 L12.1 3.9 "/><path fill=" none " stroke=" black " stroke-width=". 3 " stroke-opacity=" 1 " filling=" 0 " d=" M12.1 5.7 L12.1 5.7 C14.1 6.2 15.6 6.9 16.5 8.8 C17.4 10.7 17.1 12.8 16 14.4 C14.9 16.1 13.2 17.2 11.3 17.2 C9.4 17.2 7.8 16.1 6.9 14.4 C5.9 12.8 5.8 10.7 6.8 8.8 C7.9 6.9 9.9 6.2 12.1 5.7 L12.1 5.7 "/><path fill=" none " stroke=" black " stroke-width=". 3 " stroke-opacity=" 1 " filling=" 0 " d=" M12.1 7.5 L12.1 7.5 C13.1 7.7 13.8 7.7 14.5 8.5 C15.9 10.1 15.5 12.5 13.9 13.8 C12.4 15.1 10.4 14.8 9.1 13.6 C8 12.5 7.7 10.7 8.6 9.2 C9.6 7.8 10.5 7.8 12.1 7.5 L12.1 7.5 "/><path fill=" none " stroke=" black " stroke-width=". 3 " stroke-opacity=" 1 " filling=" 0 " d=" M12.1 8.4 L12.1 8.4 C13.3 8.7 14.2 8.8 14.9 10.1 C15.8 12.1 14.4 14.5 12.1 14.5 C9.8 14.5 8.5 12.1 9.4 10.1 C10.1 8.8 10.7 8.7 12.1 8.4 L12.1 8.4 "/><path fill=" none " stroke=" black " stroke-width=". 3 " stroke-opacity=" 1 " filling=" 0 " d=" M12.1 9.3 L12.1 9.3 C13.3 9.6 14.1 9.6 14.9 10.7 C16.3 12.7 15.1 15.6 12.1 15.6 C9.5 15.6 8.2 12.7 9.5 10.7 C10.3 9.6 10.9 9.6 12.1 9.3 L12.1 9.3 "/><path fill=" none " stroke=" black " stroke-width=". 3 ""/></svg>