<svg viewBox=" 0 0 100 100 "><c i r c l e c x=" 30 " c y=" 30 " r=" 10 "/><c i r c l e c x=" 70 " c y=" 30 " r=" 10 " d=" M17 34 10.7 109.3 L176 36 10.7 6 C172 30 10.2 6 131.4 129.2 6 129.2 C173 127.5 6 129.2 129.7 6 134.1 6 131.7 6 131.6 6 122.4 6.4 6.7 6.8 6.6 6 131.7 6.1 6.1 6.5 6.5 6.5 6.3 . 1 6.1 6.5 6.8 6.6 6.6 6.4 6.1 6.1 6.8 6.1 6.1 6.9 6.5 6.4 6.1 6.8 6.9 6.7 6.5 6.1 6.9 6.4 6.5 6.6 6.4 6.4 6.4 6.1 6.5 6.9 6.7 6.6 6.1 6.9 6.3 6.6 6.7 6.7 6.3 6.1 6.8 6.2 6.1 6.1 6.1 6.6 6.6 6.8 6.7 6.4 8 6.6 8.3 6.3 8.3 6.7 8.3 6.6 8.7 6.1 8.3 6.1 8.7 6.3 8.7 6.5 9.1 6.5 9.1 6.5 9.1 6.5 9.1 6.6 9.7 6.8 9.9 6.8 10.2 6.9 10.7 6.2 10.7 6.2 10.7 6.2 10.7 6.2 10.2 6.2 10.2 6.4 10.2 6.4 10.1 6.4 9.3 6.3 9.3 6.5 9 6.8 8.3 6.8 8.3 6.9 8.3 6.3 8.3 6.4 6.5 6.3 6.8 6.3 6.9 6.5 8.3 6.5 8.3 6.2 8.8 6.1 8.6 6.2 8.6 6.6 8.3 6.4 7.1 6.4 6.4 6.3 6.4 6.2 6.4 6.1 6.2 6.3 6.4 6.5 6"/></svg>