<svg viewBox=" 0 0 24 24 "><path fill=" r e d " d=" M12 2 L15 8 21.9 L126 18.5 25.1 L127 16.5 28.7 C123 18.5 28.2 125.7 28.3 125.7 27.3 L125.5 29.6 L130.2 21.9 L131.1 21.9 L131.1 19.3 C127.9 18.2 128.3 17.9 129.3 17.4 L124.7 17.5 C124.3 17.9 310.2 18.2 125.7 18.5 L126.7 18.5 C125.5 18.2 123.7 18.1 124.4 18 L109.8 18 C108.5 17.9 107.9 17.9 107.8 17.5 L109.2 14.8 L109.2 8.7 C106.7 6.5 106.4 5.7 105.1 5.4 L110.8 5.4 C126.3 5.6 125.9 5.8 126.2 5.4 L127.4 5.4 C129.3 5.6 128.1 5.9 126.3 6.1 L126.3 6.1 C129.6 5.7 130.5 5.6 128.4 5.4 L136.6 5.4 C134.6 4.7 134.3 4.9 135.3 4.9 L135.3 4.9 C133.3 4.3 132.9 3.8 133.6 3.2 L134.3 3.2 C132.7 3.5 132.2 4 134.1 4.7 C137 5.9 139 6.3 140.9 6.5 C139.7 6.6 143.5 5.8 143.5 5.4 C143.7 4.7 143.3 4.5 144.5 4.6 C143.9 4.6 144.2 4.9 144.5 5.3 C145.7 7.4 148.9 9.2 150.6 10.2 L149.6 10.2 C149.5 9.1 149.9 8.4 154.8 8.6 C155.8 8.8 152.9 9.2 152.6 9.2 C152 9.2 151.6 9.1 150.1 9.1 C150.6 9.1 148.5 8.8 146.6 8.8 C146.3 8.8 148.6 9.2 148.7 9.6 C149.1 10.5 148.5 11.3 149.3"/></svg>