<svg viewBox=" 0 0 100 100 "><path stroke=" g r e e n " d=" M0 50 L100 50 M 50 0 L50 100 "/><path fill=" none " stroke=" black " stroke-width=". 3 " stroke-opacity=" 1 " filling=" 0 " d=" M 364 89.6 L211 89.6 C3 49.7 90.1 306.7 89.1 305.6 89.5 C3 49 89.1 361.7 89.1 360.1 88.9 C3 49.1 83.5 361.4 82.3 361 83.6 C3 51.4 83.6 356.2 84.9 339.3 84.9 C3 50.2 84.8 362.4 85.3 365.6 85.7 C3 54.5 85.3 382.6 84.8 377.6 84.9 C3 53.1 83.9 356.7 78.5 355.8 77.6 C3 51.5 75.6 362.2 75.5 362.6 76.2 C3 51.5 76.5 361.1 75.6 314 75.9 C3 54.2 75.6 313.5 75.1 357.6 74.1 C3 53.9 75.5 356.5 73.7 358 72.3 C3 52.3 72.3 353.1 71.5 352.7 70.4 C3 52.2 69.2 361.3 68.3 359.1 68.1 C3 56.7 67.6 360.1 67.5 360.5 68.7 C3 53.6 67.8 355.8 67.8 354.5 68.5 C3 56.9 68.4 351.4 68.4 350.8 67.8 C3 52.5 68.1 359.8 69.6 360.7 71 C3 52.1 71.5 306.3 73.5 308.6 73.5 C3 52.9 71.5 377.5 68.5 379.3 68.4 C3 52.8 69.4 335.4 68.1 355.8 68.6 C3 52.4 67.9 382.7 66.4 379.9 64.7 C3 53.3 62.7 385.7 62.3 374.4 62.9 C2 51.8 62.2 377.2 62.9 377.4 62.4 C3 51.9 61.5 399.8 60.5 382.1 59.3 C3 50.2 57.5 377.9 56.1 377 58.4 L2 52.5 58.4 C2 51.8 58"/></svg>