<svg viewBox=" 0 0 100 100 "><r e c t x=" 10 " y=" 10 " width=" 80 " height=" 80 " stroke=" bl e " d=" M2 52.1 120 L2 55 119 L295.8 120 "/><path fill=" none " stroke=" black " stroke-width=". 3 " stroke-opacity=" 1 " filling=" 0 " d=" M2 60.5 120.5 L2 54.4 122.5 C2 55.8 119.7 377.3 123.3 378.7 124.6 L2 52.5 123.5 "/><path fill=" none " stroke=" black " stroke-width=". 3 " stroke-opacity=" 1 " filling=" 0 " d=" M2 56.9 119.5 L219.6 119.5 C157.9 119.6 161.1 119.5 159.9 118.8 C160.3 119.2 159.7 121.8 159.7 122.9 C157.8 123.3 157.9 123.8 158.9 130.3 C160.6 130.6 159.1 130.3 159.7 129.3 C157.1 127.7 158.3 125.3 158.2 124.9 L158.2 123.5 C158.1 125.6 158.6 126.7 159.3 126.4 C158.1 128.1 159.6 128.3 159.9 128.4 C153.9 128.3 153.5 128.7 153.9 127.1 C153.5 126.1 153.9 125.2 154.5 126.4 L152.2 126.4 C153.6 128.7 154.3 128.1 152.3 127.7 L151.4 126.3 C149.7 124.7 149.6 124.6 149.7 122.3 L148.7 122.3 C149.8 122.9 148.8 123.9 148.7 124.1 L146.7 124.9 C144.4 125.5 145.3 124.2 144.1 123.6 C144.2 123 144.7 121.1 144.5 120.4 L143.9 120.2 C149 121.5 148.4 121.1 147.4 123.5 C147.2 123.5 145.7 123.9 144.4 123.6 C145.2 124.3 144.9 124.2 144.7 123.9 C143.1 123.8 144.7 122.5 145.4 123.7 C144.1 125.7 141.9 128.7 140.6 126.3 C140.6 124.2 140.2 123.2 140.9"/></svg>