<svg viewBox=" 0 0 100 100 "><c i r c l e c x=" 50 " c y=" 50 " r=" 40 " stroke=" black " fill=" none "/> <svg xmlns=" http :// www . w3 . org/ 2000/ svg " viewBox=" 0 0 24 24 " height=" 200px " width=" 200px "><path fill=" none " stroke=" black " stroke-width=". 3 " stroke-opacity=" 1 " filling=" 0 " d=" M6.2 1.2 L6.2 1.2 C7.9 1.5 9.4 2.7 10.3 4.2 C10.9 5 10.9 6.4 10.3 7 C10.1 7.4 9.8 7.4 9.4 7.5 C8.8 7.7 8.1 7.8 7.5 7.7 C7.2 7.8 7 7.7 6.8 7.5 C6.4 7.5 6.1 7.3 5.9 7.1 C5.4 6.7 5.3 6.1 5.1 5.6 C4.4 4.7 5.1 2.9 6.2 1.2 L6.2 1.2 "/><path fill=" none " stroke=" black " stroke-width=". 3 " stroke-opacity=" 1 " filling=" 0 " d=" M17.9 1.2 L17.9 1.2 C18.5 1.2 19.1 1.2 19.6 1.2 L19.6 1.2 C19.9 1.2 20.2 1.2 20.5 1.2 L20.5 1.2 C20.7 1.2 20.9 1.3 21.2 1.2 L21.2 1.2 C21.8 1.5 22.3 2 22.8 2.6 L22.8 2.6 C22.8 3.1 22.8 3.6 22.8 4.2 L22.8 4.2 C22.5 5.2 22.1 6.3 21.5 7.2 C20.9 8.1 20.2 8.8 19.4 9.4 C18.6 9.8 18.1 10.1 17.4 10.6 C16.9 11.1 16.2 11.8 15.6 12.4 C14.9 13.1 14.8 13.6 14.5 14.2 C13.5 15.9 12.4 17.7 12.2 19.4 C12.1 20.3 12.6 21 12.7 22.2 C12.7 23.2 13.1 22.6 13.1 22"/></svg>