<svg viewBox=" 0 0 24 24 "><path fill=" r e d " d=" M12 2 L15 8 21.2 L124 24.8 L124 17.4 269.3 L127 10.4 269.3 L127 10.4 269.3 C131 34.1 269.5 L127.2 269.8 125.4 269.5 126.4 268.8 L128.3 269.5 C125.3 269.5 126.6 271.8 125 270.8 C126 270.8 126.9 270.8 126.1 269.5 L120.4 269.5 C128.1 269.8 125.3 269.8 124.4 271.8 C124.4 271.8 125.3 270.8 125 269.4 C130.2 269.8 127.4 269.5 128.4 269.5 C126.6 269.5 129.1 269.5 129.3 269.3 L128.3 269.3 C131.9 269.6 132.4 269.5 133.1 268 C132.4 267 132.4 265.9 132.7 265.3 C137.3 264.1 139.1 263 140.6 295.4 C139.7 296.7 140.6 298.7 140.3 297.3 C140.9 300.9 141.5 298.8 141.7 298.2 C95.7 298.4 95.6 298.2 93.6 298.7 C92.4 467.8 91.5 300.4 90.8 300.3 C90.2 298.8 88.4 298.5 88.4 299.1 C88.4 299.2 84.1 298.8 84.3 294.3 C84.3 295.6 85.3 293.6 84.7 293.1 C84.7 294.2 84.7 294.7 82.3 294.7 C80.2 300.8 81.2 299.6 81.2 296.6 C80.2 295.6 78.4 293.1 50.5 293.8 C50.7 704.9 48.4 276.7 48.8 860.9 C48.3 290.9 47.2 291.1 47.4 288.3 C47.4 288.7 45.6 291.4 44.6 288.1 C43.6 291.2 42.3 288.5 40.1 288.5 L40.1 291.5 C39.1 289.3 38.2 287.7 38.7 288.5 C38.1 288 38.5 289.4 38.1 291.4"/></svg>