<svg viewBox=" 0 0 100 100 "><c i r c l e c x=" 50 " c y=" 50 " r=" 40 " stroke=" black " fill=" none "/> <svg xmlns=" http :// www . w3 . org/ 2000/ svg " viewBox=" 0 0 24 24 " height=" 200px " width=" 200px "><path fill=" none " stroke=" black " stroke-width=". 3 " stroke-opacity=" 1 " filling=" 0 " d=" M10.6 1.2 L10.6 1.2 C12.4 1.4 14.1 1.7 15.7 2.3 C17.3 3 18.7 3.9 19.5 5.5 C20.3 7 20.4 8.9 19.5 10.6 C18.8 12 17.2 12.4 16.6 14.2 C16.3 14.9 16.9 17.7 16.6 18.4 C16 19.2 13.5 21.2 12.3 21.3 C11.3 21.3 9.2 18.8 8.6 18.7 C7.7 18.4 6.7 17.6 5.5 17.2 C3.7 16.2 1.8 15.1 1.4 13.2 C1.2 12.5 1.3 12 1.2 11.5 C1.1 10.6 1.2 8.6 1.2 8.1 C1.3 7.7 0.9 6.4 1.2 6.6 C1.4 7 2 6.9 2.3 6.7 C3.3 5.8 5.4 4.4 5.9 5.4 C7.2 6.9 8.9 8.5 10.6 9.8 C11.8 10.2 12.5 11.7 12.8 13 C13.4 13.1 14.3 12.4 14.9 11.8 C16.2 10.6 16.4 8.8 16.1 7.2 C15.9 5.6 15.1 4.4 14.2 3.4 C13.6 2.4 10.7 1.5 9.1 1.2 C9.1 1.1 9.3 1.2 9.5 1.2 L9.5 1.2 C10 1.2 10.4 1.2 10.6 1.2 L10.6 1.2 "/><path fill=" none " stroke=" black " stroke-width=". 3 " stroke-opacity=" 1 " filling=" 0 " d=" M10.6 2.9 L10.6 2.9 C11.1 3.1 11.7 3.3"/></svg>