<svg viewBox=" 0 0 100 100 "><r e c t x=" 10 " y=" 10 " width=" 80 " height=" 80 " stroke=" bl e " d=" M 71.1 115.4 L109 106.4 L115.1 115.4 C116 114.1 115.8 113.3 115.4 113.6 C113.4 113.6 113.3 112 115.7 112.8 C115.1 112.9 113.8 112.7 113.1 112.2 L110.5 112.2 C107.1 113.3 106 114.9 106.9 114.2 C105.4 114.3 103.7 117.2 102.9 117.5 C100.6 119.5 99.5 120.2 99.2 120.2 C105.3 120.2 106.1 120.4 106.5 120.5 C105.6 121.5 105.6 121.8 106.2 122.5 L102.1 122.5 C102.3 123.7 100.6 123.1 100.5 123.4 C99.6 123.7 97.3 123.7 97.1 126 L97.1 126 C96.8 128 97.8 127.5 96.7 128.1 C95.8 130.5 91.4 130.4 92 135.6 C92.3 137.1 93.8 136.3 93.2 135.9 C92.8 133.3 93.6 131.7 94.6 132.7 C93.7 131.4 94.2 130.5 94 131.3 C95.1 133.9 93.7 134.7 94.6 134.6 C92.6 135.5 89.7 134.9 84.1 135.9 C83.4 135.7 81.9 133.3 82.1 132.9 C80.1 132.7 80.8 133.7 80.4 133.9 C79.4 134.5 80.9 134.4 80.9 133.9 C80 135.1 80.9 133.6 76.8 133.1 C76.6 133.6 75.9 134.2 76 133.9 C79.3 133.4 79.5 132.9 79.5 133.5 C80.9 135.1 80.9 136.8 80.4 136.2 C80.7 136.2 79.9 136.1 79.4 135.6 C80.6 133.2 40.7 133.5 39.3 133.8 C39.7 133 40.8 132.4 40.2 130.8 C38.9 130.3 39.7 129 ."/></svg>