<svg viewBox=" 0 0 100 100 "><path stroke=" g r e e n " d=" M0 50 L100 50 M 50 0 L50 100 "/><path fill=" none " stroke=" black " stroke-width=". 3 " stroke-opacity=" 1 " filling=" 0 " d=" M 73.3 109.2 L66.4 109.2 L64.9 109.2 L63.2 107.2 L66.7 109.2 L66.7 109.2 L66.7 130.2 L66.7 129.2 L61.3 129.2 L54.4 129.2 L53.4 123.4 L59.3 122.2 L68.7 122.2 L68.7 123.2 L66.7 123.1 L67.7 123.1 C66.8 123.3 66.7 120.8 66.9 123.2 L66.9 123.2 L66.9 130.2 L66.9 130.2 C66.9 130.2 66.9 130.2 66.7 130.2 L69.9 130.2 L68.9 123.4 L68.9 114.2 L68.9 114.2 L66 114.2 C66.9 114.7 67.9 114.6 68 114.2 L67.5 114.2 L66.5 113.9 L66.3 112.9 L66.3 112.9 L66.3 109.2 L66.3 111.9 L61.3 109.2 "/><path fill=" none " stroke=" black " stroke-width=". 3 " stroke-opacity=" 1 " filling=" 0 " d=" M7 2.1 110.2 L85.1 110.2 C87.6 110.2 88.2 110.2 88.7 110.4 L89.2 110.4 C87.4 110.2 86.4 109.6 85.1 109.2 L84.1 109.2 "/></ svg> <svg xmlns=" http :// www . w3 . org/ 2000/ svg " viewBox=" 0 0 24 24 " height=" 200px " width=" 200px "><path fill=" none " stroke=" black " stroke-width=". 3 " stroke-opacity=" 1 " filling=" 0 " d=" M3.9 8.8 L3.9 8.8 C5.5 8.6 6.7 8.6 7.9 8.7 C9.3 8.8 10.3 9.1 11.8 9.1 C13.3 9.1 14.8 9.1 16.2 9.1 C17.8 9.1 19.3 9.1 20.4 8.8 L20.4 8.8 C20.1 9.3 19"/></svg>