<svg viewBox=" 0 0 100 100 "><r e c t x=" 10 " y=" 10 " width=" 80 " height=" 80 " stroke=" bl e " d=" M 97.8 0 05 118.6 L2 96.8 119.6 L2 91.1 117.1 L2 91.1 120.4 L2 92.5 119.4 L2 91.4 118.4 L2 93.5 116.7 L2 91.4 116.7 L2 92.5 116.5 L2 91.4 122.4 L2 92.5 121.4 L2 92.5 119.4 L2 91.4 120.4 L2 91.4 120.4 L2 91.4 121.4 L2 91.4 122.4 L2 89.8 122.4 L2 87.4 123 L2 87.4 122.4 L2 88.8 126.4 L2 87.8 128.3 L2 87.4 127.4 L2 87.4 125.4 L2 87.9 125.4 L2 91.2 128.6 L2 91.7 132 L397.6 132 "/><path fill=" none " stroke=" black " stroke-width=". 3 " stroke-opacity=" 1 " filling=" 0 " d=" M 291.7 135.8 L2 96.5 141.3 L2 95.5 142.8 L2 94.7 141.8 L2 90.7 142.8 L2 90 141.8 L2 91.1 141.8 L2 91.4 138.8 L397.9 136.9 L115.5 134.9 L2.3 135.8 L0.7 140.8 L0.2 140.8 L1.2 141.8 L1.2 142.8 L1.2 142.8 L3.5 139.8 L2.3 141.8 L2.3 140.8 L2.3 141.8 L2.3 141.8 L2.7 139.8 L2.8 140.8 L2.3 139.8 L2.5 141.8 L2.3 141.4 L2.4 141.8 L2.3 141.7 L2.3 139.9 L2.3 138.8 L2.3 139.8 L2.3 141.7 L2.3 143.8 L2.3 141.9 L2.3 141.5 L2.3 141.8 L2.3 141.8 L2.3 141.8 L2.3 141.8 L2.3 141.8 L2.3 141.8 L2.3 142.8 L2.3 140.8 L2.3 139.8 L2.3 142.8 L2.3 142.8 L2.3 141.8 L2.3 139.8 L2.4 141"/></svg>