<svg viewBox=" 0 0 100 100 "><c i r c l e c x=" 50 " c y=" 50 " r=" 40 " stroke=" black " fill=" none "/> <svg xmlns=" http :// www . w3 . org/ 2000/ svg " viewBox=" 0 0 24 24 " height=" 200px " width=" 200px "><path fill=" none " stroke=" black " stroke-width=". 3 " stroke-opacity=" 1 " filling=" 0 " d=" M6.6 2.5 L6.6 2.5 C8.7 3.2 10.5 4.4 12.1 5.7 C13.7 7 14.9 8.6 15.6 10.4 C16.3 12.2 16.5 14.1 16.3 15.8 C16 17.5 15.2 19.1 14 20.5 C12.9 21.7 11.4 22.9 9.2 22.8 C7.1 22.8 5.3 21.7 4.2 20.2 C3.2 18.8 2.5 16.9 2.3 14.9 C2 12.7 2.3 10.4 3.2 7.9 C3.8 6.1 4.6 4.5 6.6 2.5 L6.6 2.5 "/><path fill=" none " stroke=" black " stroke-width=". 3 " stroke-opacity=" 1 " filling=" 0 " d=" M7.5 3.8 L7.5 3.8 C8.5 4.6 9.1 5.6 9.5 6.6 L9.5 6.6 C10.1 7.5 10.7 8.4 11.1 9.4 L11.1 9.4 C10.5 10.2 9.8 10.9 9.2 11.6 C8.5 12.3 7.9 12.9 7.5 13.7 L7.5 13.7 C7.5 14.1 7.6 14.8 7.7 15.3 L7.7 15.3 C7.2 15.2 6.6 15.3 6 15.2 C5.3 15.1 5 15 4.8 14.8 C4.4 14.3 4.4 13.8 4.1 13.3 L4.1 13.3 C4.4 11.6 4.7 9.8 5 8.3 C5.4 6.8 5.8 5.2 7.5 3.8 L7.5 3.8 "/><path fill=" none " stroke=" black " stroke-width=". 3 " stroke-opacity=" 1 " filling=" 0 " d=" M15.3 5.6"/></svg>