<svg viewBox=" 0 0 100 100 "><c i r c l e c x=" 30 " c y=" 30 " r=" 10 "/><c i r c l e c x=" 70 " c y=" 30 " r=" 10 " stroke=" black " d=" M1 06.6 17 L83.4 17 L75.6 17 L83.4 17 L83.4 22 L83.4 29 C86.1 29 87.1 29 68.8 87.2 35 71.1 C88 30 71 90.8 30 92.7 30 93.1 C90.7 30 94.3 90.8 28 92.3 89.4 28 92.5 C90 27.8 88.7 89.6 27.2 86 01.6 28 87.9 C1 99.6 28 88.5 83.3 30 89.8 84.6 32 86.7 L1 99.6 32 85.4 C1 97 32 80.6 1103.6 31 80.5 126.9 31 81.2 L112 31.3 127.9 L1 96.8 13.7 128.9 L1 98.8 10.9 L1 99.6 6.4 L1 99.6 6.4 L1 97.6 6.4 L1 98.6 2.3 L1 91.6 2.3 L1 90.7 2.3 L1 90.7 2.3 "/></ svg> <svg xmlns=" http :// www . w3 . org/ 2000/ svg " viewBox=" 0 0 24 24 " height=" 200px " width=" 200px "><path fill=" none " stroke=" black " stroke-width=". 3 " stroke-opacity=" 1 " filling=" 0 " d=" M1.2 1.2 L8.4 1.2 L15.6 1.2 L22.8 1.2 L22.8 8.4 L22.8 15.6 L22.8 22.8 L17.4 22.8 L12 22.8 L6.6 22.8 L1.2 22.8 L1.2 15.6 L1.2 8.4 L1.2 1.2 "/><path fill=" none " stroke=" black " stroke-width=". 3 " stroke-opacity=" 1 " filling=" 0 " d=" M2.8 1.2 L8.8 1.2 L8.8 8.4 L2.8 8.4 L2.8 1.2 "/><path fill=" none " stroke=" black " stroke-width=". 3 " stroke-opacity=" 1 " filling=" 0 " d=" M10.6 1.2 L17.4 1.2 L17.4 5.2 L13.4 5.2 C14.4 7.7 16.2 8.6 18.3 8.8 L16.8 14.8 L13.4 10.6 L13"/></svg>