<svg viewBox=" 0 0 24 24 "><path fill=" r e d " d=" M12 2 L15 8 21.8 L120 25.2 L119.4 28.8 L119 30.4 L122.4 33.3 L122.4 30.4 L123.2 32.4 L126.9 32.3 L134.5 31.5 L129.5 33.3 L145 33.3 L138.2 27.5 L132.7 20.5 L138.2 14.3 L141.2 7.3 L141.2 1.2 L153.7 1.2 "/><path fill=" none " stroke=" black " stroke-width=". 3 " stroke-opacity=" 1 " filling=" 0 " d=" M12 3.9 L18.3 3.9 L18.3 4.9 L12 4.9 L12 3.9 "/><path fill=" none " stroke=" black " stroke-width=". 3 " stroke-opacity=" 1 " filling=" 0 " d=" M10.2 4.3 L14.5 4.3 L14.5 5.7 L10.2 5.7 L10.2 4.3 "/><path fill=" none " stroke=" black " stroke-width=". 3 " stroke-opacity=" 1 " filling=" 0 " d=" M16.5 5.7 L20.5 10.9 L15.3 10.9 L16.5 5.7 "/><path fill=" none " stroke=" black " stroke-width=". 3 " stroke-opacity=" 1 " filling=" 0 " d=" M15.9 14.5 L19.4 18.3 L12 18.3 L4.6 18.3 L9.3 14.5 L15.9 14.5 "/></ svg> <svg xmlns=" http :// www . w3 . org/ 2000/ svg " viewBox=" 0 0 24 24 " height=" 200px " width=" 200px "><path fill=" none " stroke=" black " stroke-width=". 3 " stroke-opacity=" 1 " filling=" 0 " d=" M11.8 1.2 L11.8 1.2 C14 1.4 16 2.1 17.5 3.3 C19.1 4.6 20.2 6.4 20.8 8.3 C21.4 10.2 21.5 12.2 21.1 14.2 C20.7 15.7 20.1 17.1 19.8 18.8 L19.8 20.7 L12 20.7 L4.2 20.7 L4.2 18.8 C3 17.1 2.4 15.7 2.1 14.2 C1.8 12.2 1.9 10.2 2.8 8 ."/></svg>