<svg xmlns="http://www.w3.org/2000/svg" viewBox="0 0 24 24"><path fill=" none " stroke=" black " stroke-width=". 3 " stroke-opacity=" 1 " filling=" 0 " d=" M12.3 1.9 L12.3 1.9 C14.5 2.1 16.6 2.8 18.1 4.5 C19.7 6.2 20.4 8.4 19.8 10.6 C19.4 12.6 18.2 14.4 16.5 15.8 C14.9 17.2 12.8 18.1 10.6 18.1 C8.4 18.1 6.4 17.2 4.8 15.8 C3.4 14.4 2.5 12.6 2.4 10.6 C2.3 8.4 3.1 6.2 4.8 4.5 C6.2 2.8 8.2 2.1 10.6 1.9 L10.6 1.9 "/><path fill=" none " stroke=" black " stroke-width=". 3 " stroke-opacity=" 1 " filling=" 0 " d=" M9.3 9.3 L9.3 9.3 C10.7 9.7 11.6 10.2 12.5 11.3 L12.5 11.3 C13.2 9.8 13.4 9.3 14.7 9.3 C15.9 9.3 16.5 10.1 16.8 11.3 L16.8 11.3 C17.1 11.6 17.3 12 17.6 12.3 L17.6 12.3 C17.6 12.3 17.6 12.3 17.6 12.3 L17.6 12.3 C17.1 13.3 16.5 14.2 15.8 14.7 C15 15.4 14.3 15.9 13.6 16.5 L13.6 17.6 C13.2 17.8 12.7 18.2 12.3 18.2 C11.9 18.2 11.7 17.8 11.4 17.6 L11.4 16.5 C10.3 15.9 9.3 15.4 8.4 14.7 C7.5 14.2 6.8 13.3 6.4 12.3 L6.4 12.3 C6.4 12 6.4 11.6 6.4 11.3 L6.4 11.3 C6.4 11 6.4 10.6 6.4 10.3 L6.4 10.3 C6.9 10.1 7.5 9.9 7.8 9.7 L7.8 9.7 C8.5 9.5 9.1 9.4 9.3 9.3 L9.3 9.3 "/></ svg> <svg xmlns=" http :// www . w3 . org/ 2000/ svg " viewBox=" 0 0 24 24 " height=" 200px " width=" 200px "><path fill=" none " stroke=" black " stroke-width=". 3 " stroke-opacity=" 1 " filling=" 0 " d=" M22.8 1.2 L22.8 8.4 L22.8 15.6 L22.8 22.8 L15.6 22.8 L8.4 22.8 L1.2 22.8 L1.2 15.6 L1.2 8.4 L1.2 1.2 "/><path fill=" none " stroke=" black " stroke-width=". 3 " stroke-opacity=" 1 " filling=" 0 " d=" M3.9 3.9 L9.3 3.9 L14.7 3.9 L20.1 3.9 L20.1 9.3 L20.1 14.7 L20.1 20.1 L14.7 20.1 L9.3 20.1 L3.9 20.1 L3.9 14.7 L3.9 9.3 L3.9 3.9 "/><path fill=" none " stroke=" black " stroke-width=". 3 " stroke-opacity=" 1 " filling=" 0 " d=" M10.6 5.7 L13.4 5.7 L13.4 9.3 L10.6 9.3 L10.6 5.7 "/><path fill=" none " stroke=" black " stroke-width=". 3 " stroke-opacity=" 1 " filling=" 0 " d=" M13.4 12 L13.4 12 C13.9 12.2 14.5 12.2 14.9 12.7 C16.2 14.4 14.6 16.5 13.4 16.5 C11.9 16.5 10.7 14.4 11.8 12.7 C12.2 12.2 12.8 12.2 13.4 12 L13.4 12 "/><path fill=" none " stroke=" black " stroke-width=". 3 " stroke-opacity=" 1 " filling=" 0 " d=" M13.4 12 L13.4 12 C13.9 12.2 14.4 12.2 14.9 12.7 C16.1 13.9 15"/></svg>