<svg xmlns="http://www.w3.org/2000/svg" viewBox="0 0 24 24"><path fill=" none " stroke=" black " stroke-width=". 3 " stroke-opacity=" 1 " filling=" 0 " d=" M12 3.4 L12 3.4 C12.3 3.5 12.6 3.6 13 3.7 L16.7 7.3 L20.2 11.7 C20.4 12 20.4 12.5 20.2 12.8 L16.7 16.5 L13 20.3 C12.1 20.5 11.9 20.4 11.3 20.3 L7.3 16.7 L3.8 12.8 C3.6 12.5 3.6 12 3.8 11.7 L7.3 7.3 L11 3.7 C11.4 3.6 11.7 3.5 12 3.4 L12 3.4 "/><path fill=" none " stroke=" black " stroke-width=". 3 " stroke-opacity=" 1 " filling=" 0 " d=" M12 4.1 L15.9 8.3 L20.2 12 L15.9 15.7 L12 20.4 L8.1 15.7 L3.8 12 L8.1 8.3 L12 4.1 "/></ svg> <svg xmlns=" http :// www . w3 . org/ 2000/ svg " viewBox=" 0 0 24 24 " height=" 200px " width=" 200px "><path fill=" none " stroke=" black " stroke-width=". 3 " stroke-opacity=" 1 " filling=" 0 " d=" M12 1.2 L16.5 5.2 L20.8 8 L16.5 11.1 L12 14.4 L7.5 11.1 L3.2 8 L7.5 5.2 L12 1.2 "/><path fill=" none " stroke=" black " stroke-width=". 3 " stroke-opacity=" 1 " filling=" 0 " d=" M12 1.2 L16.5 5.2 L20.8 8 L16.5 11.1 L12 14.4 L7.5 11.1 L3.2 8 L7.5 5.2 L12 1.2 "/><path fill=" none " stroke=" black " stroke-width=". 3 " stroke-opacity=" 1 " filling=" 0 " d=" M12 3.2 L15.4 7.7 L20.8 11.3 L16.5 14.9 L12 18.8 L7.5 14.9 L3.2 11.3 L8.6 7.7 L12 3.2 "/><path fill=" none " stroke=" black " stroke-width=". 3 " stroke-opacity=" 1 " filling=" 0 " d=" M12 3.9 L16.5 7.7 L20.8 11.3 L16.5 14.9 L12 18.8 L7.5 14.9 L3.2 11.3 L7.5 7.7 L12 3.9 "/><path fill=" none " stroke=" black " stroke-width=". 3 " stroke-opacity=" 1 " filling=" 0 " d=" M12 11.3 L12 11.3 C12.5 11.4 13.1 11.4 13.5 11.7 C14.7 12.6 14.2 14.3 12.6 14.7 C11.3 14.9 10.4 13.9 10.4 12.6 C10.4 11.6 11.1 11.6 12 11.3 L12 11.3 "/></ svg> <svg xmlns=" http :// www . w3 . org/ 2000/ svg " viewBox=" 0 0 24 24 " height=" 200px " width=" 200px "><path fill=" none " stroke=" black " stroke-width=". 3 " stroke-opacity=" 1 " filling=" 0 " d=" M1.2 1.2 L8.4 1.2 L15.6 1.2 L22.8 1.2 L22.8 8.4 L22.8 15.6 L22.8 22.8 L15.6 22.8 L8.4 22.8 L1.2 22.8 "/><path fill=" none " stroke=" black " stroke-width=". 3 " stroke-opacity=" 1 " filling=" 0 " d=" M9.7 3.9 L15.4 3.9 L16.9 6.6 L20.1 6.6 L20.1 12.9 L20.1 19.2 L14.7 19.2 L9.7 19.2 L4.8 19.2 L4.8 12.9 L4.8 6.6 L9.7 6.6 L9.7 3.9 "/><path fill=" none " stroke=" black " stroke-width=". 3 " stroke-opacity=" 1 " filling=" 0 " d=" M10.9 5.7 L13.1 5.7 L13.1 7.3 L10.9 7.3 L10.9 5.7 "/><path fill=" none " stroke=" black " stroke-width=". 3 " stroke-opacity=" 1 " filling=" 0 " d=" M13.1 9.3 L16.8 9.3 L16.8 12.9 L13.1 12.9"/></svg>