<svg xmlns="http://www.w3.org/2000/svg" viewBox="0 0 24 24"><path fill=" none " stroke=" black " stroke-width=". 3 " stroke-opacity=" 1 " filling=" 0 " d=" M12 4.6 L12 4.6 C12.2 4.7 12.5 4.8 12.7 5.1 L12.7 9.9 L12.7 14.7 L14.7 15.5 C15.6 16.6 15.6 17.2 14.7 18.3 L12 19.4 L9.3 18.3 C8.4 17.2 8.4 16.6 9.3 15.5 L11.3 14.7 L11.3 9.9 L11.3 5.1 C11.5 4.8 11.8 4.7 12 4.6 L12 4.6 "/><path fill=" none " stroke=" black " stroke-width=". 3 " stroke-opacity=" 1 " filling=" 0 " d=" M12 5.2 L12 5.2 C12.2 5.3 12.4 5.4 12.7 5.5 L12.7 11.1 L12.7 15.5 C12.5 15.8 12.5 16.2 12 16.2 C11.5 16.2 11.5 15.8 11.3 15.5 L11.3 11.1 L11.3 5.5 C11.5 5.4 11.8 5.3 12 5.2 L12 5.2 "/><path fill=" none " stroke=" black " stroke-width=". 3 " stroke-opacity=" 1 " filling=" 0 " d=" M9.3 10.6 L9.3 10.6 C9.6 10.6 9.9 10.6 10.1 10.6 L12 13.9 L14.7 10.6 C14.9 10.6 15.2 10.6 15.4 10.6 L17.2 10.6 C17.4 10.7 17.6 10.8 17.8 10.9 L17.8 14.7 L17.8 18.9 C17.6 19.3 17.4 19.7 17.2 20.1 L12 20.1 L6.8 20.1 C7 19.7 6.4 19.3 6.8 18.9 L6.8 14.7 L6.8 10.9 C7 10.8 7.1 10.7 7.3 10.6 L9.3 10.6 "/></ svg> <svg xmlns=" http :// www . w3 . org/ 2000/ svg " viewBox=" 0 0 24 24 " height=" 200px " width=" 200px "><path fill=" none " stroke=" black " stroke-width=". 3 " stroke-opacity=" 1 " filling=" 0 " d=" M1.2 5.2 L7.8 5.2 L7.8 10.3 L7.8 15.2 L3.9 10.3 L1.2 5.2 "/><path fill=" none " stroke=" black " stroke-width=". 3 " stroke-opacity=" 1 " filling=" 0 " d=" M21.6 5.2 L18.9 10.3 L15.4 15.2 L11.6 8.4 L16.6 8.4 L20.1 1.2 "/><path fill=" none " stroke=" black " stroke-width=". 3 " stroke-opacity=" 1 " filling=" 0 " d=" M12.4 7.5 L16.6 7.5 L20.1 7.5 L20.1 13.7 L16.6 18.5 L12.4 22.8 L8.8 18.5 L5.2 13.7 L8.8 10.3 L12.4 7.5 "/><path fill=" none " stroke=" black " stroke-width=". 3 " stroke-opacity=" 1 " filling=" 0 " d=" M12.4 10.7 L14.4 12.4 L17.9 12.4 L14.4 13.4 L14.4 17.9 L12.4 16.7 L12.4 13.4 L9.1 15.2 L9.1 11.3 L12.4 10.7 "/></ svg> <svg xmlns=" http :// www . w3 . org/ 2000/ svg " viewBox=" 0 0 24 24 " height=" 200px " width=" 200px "><path fill=" none " stroke=" black " stroke-width=". 3 " stroke-opacity=" 1 " filling=" 0 " d=" M12 4.1 L12 4.1 C12.7 4.1 13.4 4.6 13.9 5.1 L17.8 10.1 L21.3 15.3 L21.3 21.3 L15.5 21.3 L9.8 21.3 L3.4 21.3 L2.7 15.3 L2.7 8.7 L6.6 10.1 L10.1 5.1 C10.6 4.6 11.3 4.1 12 4.1 L12 4.1 "/><path fill=" none " stroke=" black " stroke-width=". 3 " stroke-opacity=" 1 ""/></svg>