<svg xmlns="http://www.w3.org/2000/svg" viewBox="0 0 24 24"><path fill=" none " stroke=" black " stroke-width=". 3 " stroke-opacity=" 1 " filling=" 0 " d=" M5.2 3.9 L12 3.9 L18.8 3.9 C20.1 4.4 20.5 4.8 21 6.2 L21 12 L21 17.8 C20.5 19.2 20.1 19.6 18.8 20.1 L12 20.1 L5.2 20.1 C3.9 19.6 3.5 19.2 3 17.8 L3 12 L3 6.2 C3.5 4.8 3.9 4.4 5.2 3.9 L5.2 3.9 "/><path fill=" none " stroke=" black " stroke-width=". 3 " stroke-opacity=" 1 " filling=" 0 " d=" M5.2 5.2 L12 5.2 L18.8 5.2 C19.1 5.4 19.4 5.6 19.7 5.8 L19.7 12 L19.7 18.2 C19.4 18.4 19.1 18.6 18.8 18.8 L12 18.8 L5.2 18.8 C4.9 18.6 4.6 18.4 4.3 18.2 L4.3 12 L4.3 5.8 C4.6 5.6 4.9 5.4 5.2 5.2 L5.2 5.2 "/><path fill=" none " stroke=" black " stroke-width=". 3 " stroke-opacity=" 1 " filling=" 0 " d=" M5.2 7.8 L12 7.8 L18.8 7.8 L18.8 12 L18.8 16.2 L12 16.2 L5.2 16.2 L5.2 12 L5.2 7.8 "/><path fill=" none " stroke=" black " stroke-width=". 3 " stroke-opacity=" 1 " filling=" 0 " d=" M5.2 8.9 L12 8.9 L18.8 8.9 L18.8 12 L12 12 L5.2 12 L5.2 8.9 "/><path fill=" none " stroke=" black " stroke-width=". 3 " stroke-opacity=" 1 " filling=" 0 " d=" M5.2 10.3 L12 10.3 L18.8 10.3 L18.8 14.7 L18.8 18.8 L12 18.8 L5.2 18.8 L5.2 14.7 L5.2 10.3 "/><path fill=" none " stroke=" black " stroke-width=". 3 " stroke-opacity=" 1 " filling=" 0 " d=" M5.2 11.5 L12 11.5 L18.8 11.5 L18.8 16.2 L12 16.2 L5.2 16.2 L5.2 11.5 "/><path fill=" none " stroke=" black " stroke-width=". 3 " stroke-opacity=" 1 " filling=" 0 " d=" M5.2 14.7 L12 14.7 L18.8 14.7 L18.8 16.2 L12 16.2 L5.2 16.2 L5.2 14.7 "/></ svg> <svg xmlns=" http :// www . w3 . org/ 2000/ svg " viewBox=" 0 0 24 24 " height=" 200px " width=" 200px "><path fill=" none " stroke=" black " stroke-width=". 3 " stroke-opacity=" 1 " filling=" 0 " d=" M8.8 5.2 L8.8 5.2 C9.4 5.4 10.1 5.4 10.7 5.7 C12 6.6 12 8.6 10.7 9.3 C9.5 10.1 8.1 9.3 7.9 8.3 C7.8 7.3 8.5 6.3 8.8 5.7 C9.1 5.4 9.7 5.4 9.9 5.2 L8.8 5.2 "/><path fill=" none " stroke=" black " stroke-width=". 3 " stroke-opacity=" 1 " filling=" 0 " d=" M15.2 5.2 L15.2 5.2 C15.5 5.4 15.8 5.4 16 5.7 C16.2 6.3 16.2 7.3 15.9 7.3 C15.5 7.3 15.2 6.4 15.2 5.7 C15.2 5.4 15.5 5.4 15.8 5.2 L15.8 5.2 "/><path fill=" none " stroke=" black " stroke-width=". 3 " stroke-opacity=" 1 " filling=" 0 " d=" M9.8 5.8 L9.8 5.8 C10.3 5.9 11 5.9 11.6 6.2 C12.6 6.7 13.3 7.6 13.7 8.7 C14.1 9.7 14.3 11 14.5 12.3 L12.1 12.3 C12"/></svg>