<svg viewBox=" 0 0 100 100 "><c i r c l e c x=" 50 " c y=" 50 " r=" 40 " stroke=" black " fill=" none "/><c i r c l e c x=" 35 " c y=" 40 " r=" 5 " fill=" black "/> <svg xmlns=" http :// www . w3 . org/ 2000/ svg " viewBox=" 0 0 24 24 " height=" 200px " width=" 200px "><path fill=" none " stroke=" black " stroke-width=". 3 " stroke-opacity=" 1 " filling=" 0 " d=" M11.3 4.8 L11.3 4.8 C11.9 4.8 12.5 4.8 13 4.8 L16.7 8.9 L19.2 12.7 L22.2 17.5 C22.2 17.9 22.3 18.3 22.2 18.6 C22.1 18.9 21.6 19 21.3 19.1 L15 19.1 L9 19.1 L3 19.1 C2.7 19 2.4 18.9 2.2 18.6 C1.9 18.3 1.9 17.9 1.8 17.5 L6.9 12.7 L11.3 8.9 L7.3 8.9 L9.4 7.1 L11.3 4.8 "/><path fill=" none " stroke=" black " stroke-width=". 3 " stroke-opacity=" 1 " filling=" 0 " d=" M11.3 8.9 L11.3 8.9 C11.8 8.9 12.2 8.9 12.7 8.9 L15.1 11.7 L18.2 14.7 C18.2 15 18.1 15.2 18.2 15.4 L12.7 15.4 L7.9 15.4 C7.6 15.2 7.2 15 7.1 14.7 L9.8 11.7 L11.3 8.9 "/></ svg> <svg xmlns=" http :// www . w3 . org/ 2000/ svg " viewBox=" 0 0 24 24 " height=" 200px " width=" 200px "><path fill=" none " stroke=" black " stroke-width=". 3 " stroke-opacity=" 1 " filling=" 0 " d=" M12 4.8 L12 4.8 C13.6 5.1 14.9 5.4 16.1 6.1 C17.2 6.8 18.1 7.8 18.7 9.1 C19.3 10.5 19.5 12.1 19.2 13.8 C18.9 15.4 18.2 16.9 17.1 17.9 C16.1 18.9 14.8 19.2 13.4 19.2 C11.7 19.3 10.3 18.8 9.1 18.1 C7.7 17.3 6.4 16.2 5.6 14.9 C4.9 13.6 4.7 12 5 10.5 C5.4 8.8 6.3 7.2 7.6 6.1 C9 5 10.4 5 12 4.8 L12 4.8 "/><path fill=" none " stroke=" black " stroke-width=". 3 " stroke-opacity=" 1 " filling=" 0 " d=" M12 5.5 L12 5.5 C13.7 5.8 15.2 6.2 16.3 7.7 C17.5 9.4 17.5 11.3 16.8 13 C15.9 14.8 14.3 16.3 12 16.3 C9.7 16.3 8.1 14.8 7.2 13 C6.5 11.3 6.5 9.4 7.7 7.7 C8.8 6.2 10.3 5.8 12 5.5 L12 5.5 "/><path fill=" none " stroke=" black " stroke-width=". 3 " stroke-opacity=" 1 " filling=" 0 " d=" M12 7.5 L12 7.5 C13.4 8 14.2 8.3 14.6 9.7 C15 11.1 14.4 12.6 13.4 13.6 C12.4 14.5 11.1 14.7 9.7 13.6 C8.6 12.6 8.2 11.1 8.8 9.7 C9.8 8.3 10.6 8 12 7.5 L12 7.5 "/><path fill=" none " stroke=" black " stroke-width=". 3 " stroke-opacity=" 1 " filling=" 0 " d=" M11.6 8.6 L11.6 8.6 C12.8 9.2 13.9 10.3 14.5 11.4 C15 12.5 15.2 13.9 14.9 15.4 C14.6 16.3 13.9 17.2 12.8 17.2 C11.5 17.2 10.4 16.3 9.5 15.4 C8.6 14.3 8 13 7.8 11.7 C7.6 10.6 8 9.3 9.1 8.9 C9.9 8.6 10.6 8.7 11.6 8.6 L11.6 8.6 "/><path fill=" none " stroke=" black " stroke-width=". 3 " stroke"/></svg>