<svg xmlns="http://www.w3.org/2000/svg" viewBox="0 0 24 24"><path fill=" none " stroke=" black " stroke-width=". 3 " stroke-opacity=" 1 " filling=" 0 " d=" M1.2 1.2 L8.4 1.2 L15.6 1.2 L22.8 1.2 L22.8 8.4 L22.8 15.6 L22.8 22.8 L15.6 22.8 L8.4 22.8 L1.2 22.8 "/><path fill=" none " stroke=" black " stroke-width=". 3 " stroke-opacity=" 1 " filling=" 0 " d=" M12 2.9 L12 2.9 C13.3 3 14.6 3.2 15.8 3.8 C17 4.4 18.1 5.2 19 6.5 C20.4 8.3 20.8 10.3 20.4 12.1 C20 13.8 19 15.5 17.4 16.7 C15.8 18.1 13.7 18.9 11.6 18.9 C9.6 18.9 7.6 18.1 6 16.7 C4.3 15.2 3.3 13.1 3.3 10.9 C3.2 8.7 4.2 6.3 6.1 4.8 C7.7 3.3 9.8 2.9 12 2.9 L12 2.9 "/><path fill=" none " stroke=" black " stroke-width=". 3 " stroke-opacity=" 1 " filling=" 0 " d=" M9.3 9 L9.6 9.3 L9.3 9.7 L9.3 9.3 L9.3 9 "/><path fill=" none " stroke=" black " stroke-width=". 3 " stroke-opacity=" 1 " filling=" 0 " d=" M9.6 9.3 L9.4 9.5 L9.4 9.7 L9.6 9.3 "/><path fill=" none " stroke=" black " stroke-width=". 3 " stroke-opacity=" 1 " filling=" 0 " d=" M9.6 9.3 L9.7 9.3 L9.4 9.7 L9.1 9.7 L9.6 9.3 "/><path fill=" none " stroke=" black " stroke-width=". 3 " stroke-opacity=" 1 " filling=" 0 " d=" M9.6 9.3 L10.2 9.3 L10.2 9.7 L9.6 9.7 "/><path fill=" none " stroke=" black " stroke-width=". 3 " stroke-opacity=" 1 " filling=" 0 " d=" M11.1 9.3 L12.9 9.3 L12.9 12.7 L11.1 12.7 "/><path fill=" none " stroke=" black " stroke-width=". 3 " stroke-opacity=" 1 " filling=" 0 " d=" M9.6 9.3 L9.6 9.3 C9.6 9.6 9.6 9.8 9.6 10 L8.7 10.9 L9.1 10.9 C9.3 11.1 9.6 11.2 9.6 11.5 L9.6 11.8 L9.6 11.8 C9.5 11.8 9.3 11.8 9.2 11.8 L9.4 11.5 C9.4 11.2 9.5 10.9 9.6 10.7 L9.6 10.7 "/><path fill=" none " stroke=" black " stroke-width=". 3 " stroke-opacity=" 1 " filling=" 0 " d=" M9.6 10.7 L10.2 10.7 L10.2 11.6 L9.6 11.6 "/><path fill=" none " stroke=" black " stroke-width=". 3 " stroke-opacity=" 1 " filling=" 0 " d=" M9.6 10.7 L9.9 10.7 L9.9 10.7 L9.6 10.7 "/><path fill=" none " stroke=" black " stroke-width=". 3 " stroke-opacity=" 1 " filling=" 0 " d=" M9.6 10.7 L10.2 10.7 L10.2 11.6 L9.6 11.6 "/><path fill=" none " stroke=" black " stroke-width=". 3 " stroke-opacity=" 1 " filling=" 0 " d=" M13.8 10.7 L14.2 10.7 L14.2 11.6 L13.8 11.6 "/><path fill=" none " stroke=" black " stroke-width=". 3 " stroke-opacity=" 1 " filling=" 0 " d=" M9.6 12.5 L10.2 12.5 L10.2 13.6 L9.6 13.6 "/><path fill=" none " stroke=" black " stroke-width=". 3 " stroke-opacity=" 1 " filling=" 0 " d=" M10.2 12.7 L10.2 12.7 C10.3 12.9 10.3 13 10.5 13 L9.6 13 "/><path fill=" none ""/></svg>