<svg xmlns="http://www.w3.org/2000/svg" viewBox="0 0 24 24"><path fill=" none " stroke=" black " stroke-width=". 3 " stroke-opacity=" 1 " filling=" 0 " d=" M21.1 3.1 L21.1 3.1 C21.9 3.3 22.6 3.7 22.8 4.6 L22.8 12 L22.8 19.4 C22.6 20.3 21.9 20.7 21.1 20.9 L15.4 20.9 L15.4 21 L15.4 16 C15.2 15.9 14.8 15.7 14.3 15.4 L9 15.4 C8.3 14.9 8.3 14.2 9 13.9 L14 13.9 C14.2 14.2 14.3 14.6 14.3 15 L14.3 20.9 L8.6 20.9 L3.1 20.9 C2.1 20.7 1.4 20.3 1.2 19.4 L1.2 19.4 C1.4 19.1 1.4 18.7 1.7 18.4 L6.6 18.4 L10.2 18.4 C10.3 18.4 10.3 18.4 10.3 18.4 L15.4 18.4 L20.1 18.4 L20.1 13.9 L20.1 8.6 L20.1 3.9 L16.7 3.9 L12 3.9 L8.6 3.9 L8.6 3.1 "/><path fill=" none " stroke=" black " stroke-width=". 3 " stroke-opacity=" 1 " filling=" 0 " d=" M3.9 5.6 L9.3 5.6 L14.7 5.6 L14.7 9.3 L9.3 9.3 L3.9 9.3 L3.9 5.6 "/><path fill=" none " stroke=" black " stroke-width=". 3 " stroke-opacity=" 1 " filling=" 0 " d=" M4.6 6 L8.6 6 L8.6 9.3 L4.6 9.3 L4.6 6 "/><path fill=" none " stroke=" black " stroke-width=". 3 " stroke-opacity=" 1 " filling=" 0 " d=" M4.6 14.7 L8.6 14.7 L8.6 18.4 L4.6 18.4 L4.6 14.7 "/><path fill=" none " stroke=" black " stroke-width=". 3 " stroke-opacity=" 1 " filling=" 0 " d=" M10.2 14.7 L13.8 14.7 L13.8 18.4 L10.2 18.4 L10.2 14.7 "/></ svg> <svg xmlns=" http :// www . w3 . org/ 2000/ svg " viewBox=" 0 0 24 24 " height=" 200px " width=" 200px "><path fill=" none " stroke=" black " stroke-width=". 3 " stroke-opacity=" 1 " filling=" 0 " d=" M6.2 1.2 L8.4 1.2 L8.4 3 L14 3 L14 2 L17.8 2 L17.8 5.3 L21 5.3 L21 11.3 L21 17.8 L21 22.8 L19.5 22.8 L19.5 17.8 L19.5 11.3 L19.5 5.3 L12.8 5.3 L12.8 5.9 L15 5.9 L15 3 L17.8 3 L17.8 1.2 L20.5 1.2 L20.5 8 L20.5 14 L17.8 14 L17.8 19.9 L12.8 19.9 L12.8 14.5 L12.8 9.5 L12.8 4.4 L10.1 4.4 L10.1 10.7 L11.1 10.7 L11.1 5.9 L12.8 5.9 L12.8 8.3 L19.2 8.3 L19.2 6.2 L15.1 6.2 L10.5 6.2 L10.5 11.5 L10.5 16.7 L10.5 22.8 L6.2 22.8 L6.2 16.7 L6.2 11.3 L6.2 5.9 L6.2 1.2 "/><path fill=" none " stroke=" black " stroke-width=". 3 " stroke-opacity=" 1 " filling=" 0 " d=" M14.1 2.4 L14.1 8.6 L14.1 15.5 L14.1 22.8 L9.4 22.8 L9.4 15.5 L9.4 8.4 L9.4 2.4 L14.1 2.4 "/><path fill=" none " stroke=" black " stroke-width=". 3 " stroke-opacity=" 1 " filling=" 0 " d=" M13.6 12.7 L13.6 12.7 C14.9 12.5 16.4 12.9 17.9 13.3 C19.3 13.5 21.6 13.7 22.3 15.1 L22.3"/></svg>