<svg xmlns="http://www.w3.org/2000/svg" viewBox="0 0 24 24"><path fill=" none " stroke=" black " stroke-width=". 3 " stroke-opacity=" 1 " filling=" 0 " d=" M5.9 1.2 L11.9 1.2 L18.1 1.2 L18.1 3.9 L20.1 3.9 L20.1 5.2 L16.5 5.2 L16.5 8.4 L18.8 8.4 L18.8 9.3 C18.5 9.6 18.3 10.1 18.1 10.4 L12.8 10.4 L12.8 13.6 L18.8 13.6 C20.2 13.9 20.7 14.4 21.2 15.6 L21.2 16.5 C20.7 18.5 20.2 19.1 18.8 20.1 L12 20.1 L5.2 20.1 C3.8 19.7 3.1 19 2.8 17.4 L2.8 14.7 L2.8 10.2 L2.8 6.6 C2.8 6.2 2.8 5.7 3 5.2 L3 3.9 L5.2 3.9 L5.2 1.2 L12 1.2 L18.8 1.2 L18.8 3.9 L18.8 9.3 L12.7 9.3 L12.7 6.6 L11.9 6.6 L11.9 3.9 L5.2 3.9 L5.2 9.3 L3.9 9.3 L3.9 3.9 L5.2 3.9 L5.2 5.2 L3.9 5.2 L3.9 3.9 L5.2 3.9 L5.2 1.2 "/><path fill=" none " stroke=" black " stroke-width=". 3 " stroke-opacity=" 1 " filling=" 0 " d=" M5.2 3.9 L11.9 3.9 L11.9 5.2 L8.4 5.2 L8.4 7.5 L6.6 7.5 L6.6 11.9 L12 11.9 L12 12.9 L8.4 12.9 L8.4 16.5 L10.4 16.5 L10.4 18.8 L5.2 18.8 L5.2 12 L5.2 3.9 "/><path fill=" none " stroke=" black " stroke-width=". 3 " stroke-opacity=" 1 " filling=" 0 " d=" M12 3.9 L12 3.9 C13.6 4.2 14.2 4 15.6 4.8 C17.4 5.8 18.4 7.3 18.8 9.3 C19.1 11.2 18.8 13.1 18.1 14.8 C17.4 16.4 16.3 17.9 14.6 18.8 L14.6 18.8 C12.7 17.9 11.3 17.1 9.4 16.5 L9.4 16.5 C8.7 17.3 8.2 17.9 6.6 18.8 L6.6 18.8 C6.8 16.7 6.9 14.8 6.9 12.9 L5.9 12.9 L5.9 9.3 C6.2 7.3 7.1 5.8 8.4 4.8 C9.8 4 10.4 4.2 12 3.9 L12 3.9 "/><path fill=" none " stroke=" black " stroke-width=". 3 " stroke-opacity=" 1 " filling=" 0 " d=" M12 9.3 L12 9.3 C12.3 9.5 12.6 9.7 12.9 9.9 L12.9 14.1 C12.6 14.3 12.4 14.7 12 14.7 C11.6 14.7 11.4 14.3 11.1 14.1 L11.1 9.9 C11.4 9.7 11.7 9.5 12 9.3 L12 9.3 "/><path fill=" none " stroke=" black " stroke-width=". 3 " stroke-opacity=" 1 " filling=" 0 " d=" M12 9.3 L12 9.3 C12.3 9.5 12.6 9.7 12.9 9.9 L12.9 14.1 C12.6 14.3 12.4 14.7 12 14.7 C11.6 14.7 11.4 14.3 11.1 14.1 L11.1 9.9 C11.4 9.7 11.7 9.5 12 9.3 L12 9.3 "/><path fill=" none " stroke=" black " stroke-width=". 3 " stroke-opacity=" 1 " filling=" 0 " d=" M12 9.3 L12 9.3 C12.3 9.5 12.6 9.7 12.9 9.9 L12.9 14.1 C12.6 14.3 12.4 14.7 12 14.7 C11.6 14.7"/></svg>