<svg xmlns="http://www.w3.org/2000/svg" viewBox="0 0 24 24"><path fill=" none " stroke=" black " stroke-width=". 3 " stroke-opacity=" 1 " filling=" 0 " d=" M10.1 1.2 L10.1 1.2 C10.2 1.3 10.3 1.3 10.4 1.4 L11.5 2.8 L13.9 2.8 C14.3 3 14.8 3.3 15.1 3.6 L15.7 5.5 L15.1 5.5 C14.8 5.8 14.3 5.9 13.9 6.1 L11.5 6.1 L11.4 11.6 L11.4 17.9 L10.9 17.9 L10.9 11.6 L10.1 6.1 L8.7 6.1 C8.6 5.9 8.5 5.8 8.4 5.5 L8.4 3.6 C8.5 3.3 8.6 3 8.7 2.8 L10.1 1.4 C10.2 1.3 10.3 1.3 10.4 1.2 L10.4 1.2 "/><path fill=" none " stroke=" black " stroke-width=". 3 " stroke-opacity=" 1 " filling=" 0 " d=" M13.4 1.2 L13.4 1.2 C13.7 1.3 13.8 1.3 14 1.4 L17.9 4.2 L21.5 6.1 C21.5 6.1 21.5 6.2 21.4 6.3 L19.2 6.1 L19.2 11.6 L19.2 17.5 L19.2 22.8 C19 22.9 18.9 22.8 18.7 22.8 L18.7 17.9 L18.7 11.6 L18.7 6.1 L13.4 6.1 L13.4 1.2 "/><path fill=" none " stroke=" black " stroke-width=". 3 " stroke-opacity=" 1 " filling=" 0 " d=" M10.1 16.7 L10.1 16.7 C10.7 16.9 11.4 17.1 12 17.4 L12 22.8 L11 22.8 L11 17.4 C10.9 17.1 10.9 16.8 10.6 16.7 L10.1 16.7 "/><path fill=" none " stroke=" black " stroke-width=". 3 " stroke-opacity=" 1 " filling=" 0 " d=" M13.7 16.7 L13.7 16.7 C14.3 17.1 15.1 17.1 15.1 18 C15.1 20.3 12 20.3 12 17.4 C12 17.1 12.7 17.1 13.1 16.7 L13.7 16.7 "/></ svg> <svg xmlns=" http :// www . w3 . org/ 2000/ svg " viewBox=" 0 0 24 24 " height=" 200px " width=" 200px "><path fill=" none " stroke=" black " stroke-width=". 3 " stroke-opacity=" 1 " filling=" 0 " d=" M12 4.6 L12 4.6 C14.1 4.7 15.9 5.2 17.5 6.3 C19.1 7.3 20.3 8.8 21 11 C21.6 13 21.4 15.2 20.6 17.2 C19.8 19.1 18.5 20.5 16.6 21.4 C15 22.3 13.1 22.7 11.2 22.5 C9.4 22.3 7.8 21.6 6.5 20.3 C4.8 18.8 3.8 16.6 3.5 14.4 C3.2 12.2 3.6 10 4.8 8.2 C5.8 6.5 7.2 5.1 9.1 4.4 C10.7 3.8 11.3 4.5 12 4.6 L12 4.6 "/><path fill=" none " stroke=" black " stroke-width=". 3 " stroke-opacity=" 1 " filling=" 0 " d=" M13.3 8.6 L13.3 8.6 C14.1 9.3 15.2 10.1 16.2 10.9 C16.7 11.3 19.1 10.6 19.7 11.8 C19.9 12.3 19.4 13 19.1 13.5 C17.7 15.5 15.6 16.1 13.5 15.5 C11.6 15 9.7 14.1 8.2 13.5 L8.2 13.5 C7.7 13.2 7.4 12.8 7.2 12.4 C6.9 11.9 7.1 11.4 7.2 10.9 C7.5 10 8.3 9.2 9 8.6 C10.3 7.8 11.6 7.7 13.3 8.6 L13.3 8 ."/></svg>