<svg xmlns="http://www.w3.org/2000/svg" viewBox="0 0 24 24"><path fill=" none " stroke=" black " stroke-width=". 3 " stroke-opacity=" 1 " filling=" 0 " d=" M7.5 2.6 L7.5 2.6 C7.8 2.6 8.2 2.6 8.5 2.6 L13.8 7.4 L20.1 11.5 C20.3 11.8 20.3 12.2 20.1 12.5 L13.8 16.6 L8.5 20.1 C7.7 20.3 7 19.7 6.8 18.8 L9.9 15.1 L13.8 12 L9.9 8.9 L6.8 5.2 C6.7 4.6 6.7 4.2 6.9 3.9 L7.5 2.6 "/></ svg> <svg xmlns=" http :// www . w3 . org/ 2000/ svg " viewBox=" 0 0 24 24 " height=" 200px " width=" 200px "><path fill=" none " stroke=" black " stroke-width=". 3 " stroke-opacity=" 1 " filling=" 0 " d=" M3.9 3.9 L9.3 3.9 L14.7 3.9 L20.1 3.9 C20.4 4.1 20.7 4.3 21 4.6 L21 9.3 L21 13.8 C20.7 14.2 20.4 14.5 20.1 14.7 L14.7 14.7 L9.3 14.7 L3.9 14.7 C3.6 14.5 3.3 14.2 3 13.8 L3 9.3 L3 4.6 C3.3 4.3 3.6 4.1 3.9 3.9 L3.9 3.9 "/><path fill=" none " stroke=" black " stroke-width=". 3 " stroke-opacity=" 1 " filling=" 0 " d=" M3.9 5.7 L9.3 5.7 L14.7 5.7 L20.1 5.7 L20.1 9.3 L14.7 9.3 L9.3 9.3 L3.9 9.3 L3.9 5.7 "/><path fill=" none " stroke=" black " stroke-width=". 3 " stroke-opacity=" 1 " filling=" 0 " d=" M3.9 12 L9.3 12 L14.7 12 L20.1 12 L20.1 18.3 L14.7 18.3 L9.3 18.3 L3.9 18.3 L3.9 12 "/></ svg> <svg xmlns=" http :// www . w3 . org/ 2000/ svg " viewBox=" 0 0 24 24 " height=" 200px " width=" 200px "><path fill=" none " stroke=" black " stroke-width=". 3 " stroke-opacity=" 1 " filling=" 0 " d=" M7.1 1.2 L12 1.2 L16.9 1.2 C18.7 1.7 19.4 2.2 20.1 3.9 L20.1 9.3 L20.1 14.7 L20.1 20.1 C19.9 21.8 19.9 22.3 18.3 22.8 L12 22.8 L5.7 22.8 C4.1 22.3 4.1 21.8 3.9 20.1 L3.9 14.7 L3.9 9.3 L3.9 3.9 C4.1 2.2 4.1 1.7 7.1 1.2 L7.1 1.2 "/><path fill=" none " stroke=" black " stroke-width=". 3 " stroke-opacity=" 1 " filling=" 0 " d=" M7.1 2.6 L12 2.6 L16.9 2.6 C18.1 2.8 18.7 2.8 19.4 3.9 C19.9 4.4 20.1 5.2 20.1 5.9 C20.1 7 19.9 8.2 19.4 8.9 C18.7 9.7 17.9 9.8 16.9 10.2 L12 10.2 L7.1 10.2 C5.9 9.8 5.3 9.7 4.6 8.9 C3.9 8.2 3.9 7 3.9 5.9 C3.9 5.2 4.1 4.4 4.6 3.9 C5.3 2.8 5.9 2.8 7.1 2.6 L7.1 2.6 "/><path fill=" none " stroke=" black " stroke-width=". 3 " stroke-opacity=" 1 " filling=" 0 " d=" M7.1 13.8 L12 13.8 L16.9 13.8 C17.3 14.1 17.6 14.4 17.9 14.7 L17.9 19.4 C17.6 19.7 17.3 20.1 16.9 20.3 L12 20.3 L7.1 20.3 C6.7 20.1 6 ."/></svg>