<svg xmlns="http://www.w3.org/2000/svg" viewBox="0 0 24 24"><path fill=" none " stroke=" black " stroke-width=". 3 " stroke-opacity=" 1 " filling=" 0 " d=" M1.2 1.2 L8.4 1.2 L15.6 1.2 L22.8 1.2 L22.8 8.4 L22.8 15.6 L22.8 22.8 L15.6 22.8 L8.4 22.8 L1.2 22.8 "/><path fill=" none " stroke=" black " stroke-width=". 3 " stroke-opacity=" 1 " filling=" 0 " d=" M12.3 7.5 L12.3 7.5 C12.7 7.5 13.1 7.5 13.5 7.5 L13.5 7.5 C13.1 7.9 12.7 8.4 12.3 8.9 L12.3 8.9 C12.5 9.2 12.7 9.5 12.9 9.8 L12.9 9.8 C13.6 9.6 14.3 9.3 15 9.3 C15.9 9.3 16.7 9.7 17.3 10.2 L17.3 10.2 C17.3 10.4 17.3 10.7 17.3 10.9 L17.3 10.9 C17.5 11.2 17.6 11.6 17.7 11.9 L17.7 11.9 C17.4 12.7 17.1 13.3 16.6 13.8 L16.6 13.8 C16.8 14.1 17.3 14.3 17.3 14.7 C17.3 15.1 16.8 15.4 16.6 15.7 L16.6 15.7 C16.5 15.8 16.4 16 16.2 16.2 L16.2 16.2 C15.9 16.3 15.5 16.5 15.2 16.6 L15.2 16.6 C14.9 16.7 14.5 16.9 14.2 17.2 L14.2 17.2 C14.1 17 14 16.6 13.9 16.3 L13.9 16.3 C13.9 16.5 13.9 16.6 13.8 16.7 L13.8 16.7 C13.7 16.7 13.6 16.7 13.5 16.7 L13.5 16.7 C13.4 16.7 13.3 16.7 13.2 16.7 L13.2 16.7 C13.2 16.7 13.2 16.7 13.2 16.7 L13.2 16.7 C13.2 16.7 13.1 16.8 13.1 16.9 L13.1 16.9 C13.1 17 13.1 17 13.1 17 L13.1 17 C12.9 17 12.7 17 12.7 17 L12.7 17 C12.7 17 12.7 17 12.7 17 L12.7 17 C12.7 17 12.7 17 12.7 17 L12.7 17 C12.7 17 12.7 17 12.7 17 L12.7 17 C12.7 17 12.7 17 12.7 17 L12.7 17 C12.7 17 12.7 17 12.7 17 L12.7 17 C12.7 17 12.7 17 12.7 17 L12.7 17 C12.7 17 12.7 17 12.7 17 L12.7 17 C12.7 17 12.7 17 12.7 17 L12.7 17 C12.7 17 12.7 17 12.7 17 L12.7 17 C12.7 17 12.7 17 12.7 17 L12.7 17 C12.7 17 12.7 17 12.7 17 L12.7 17 C12.7 17 12.7 17 12.7 17 L12.7 17 C12.7 17 12.7 17 12.7 17 L12.7 17 C12.7 17 12.7 17 12.7 17 L12.7 17 C12.7 17 12.7 17 12.7 17 L12.7 17 C12.7 17 12.7 17 12.7 17 L12.7 17 C12.7 17 12.7 17 12.7 17 L12.7 17 C12.7 17 12.7 17 12.7 17 L12.7 17 C12.7 17 12.7 17 12.7 17 L12.7 17 C12.7 17 12.7 17 12.7 17 L12.7 17 C12.7 17 12.7 17 12.7 17 L12.7 17 C12.7 17 12.7 17 12.7 17 L12.7 17 C12.7 17 12.7 17 12.7 17 L12.7 17 C12.7 17 12.7 17 12.7 17 L12.7 17 C12.7 17 12.7 17 12.7 17 L12.7 17 C12.7 17 12.7 17 12.7 17 L12.7 17 C12 ."/></svg>