<svg xmlns="http://www.w3.org/2000/svg" viewBox="0 0 24 24"><path fill=" none " stroke=" black " stroke-width=". 3 " stroke-opacity=" 1 " filling=" 0 " d=" M12 1.2 L12 1.2 C13.9 1.4 15.8 1.8 17.4 2.7 C18.9 3.6 20.3 4.8 21.3 6.5 C22.4 8.3 22.8 10.2 22.8 12.1 C22.7 13.9 22.2 15.7 21.3 17.3 C20.4 18.9 19.1 20.3 17.5 21.3 C15.9 22.2 14 22.8 12 22.8 C10 22.8 8.1 22.2 6.5 21.3 C4.9 20.3 3.6 18.9 2.7 17.3 C1.8 15.7 1.3 13.9 1.2 12.1 C1.2 10.2 1.6 8.3 2.7 6.5 C3.7 4.8 5.1 3.6 6.6 2.7 C8.2 1.8 10.1 1.4 12 1.2 L12 1.2 "/><path fill=" none " stroke=" black " stroke-width=". 3 " stroke-opacity=" 1 " filling=" 0 " d=" M12 3.9 L12 3.9 C14.3 4.2 16.1 4.8 17.6 6.4 C19.2 8.1 19.9 10.2 19.8 12.2 C19.7 13.9 19 15.7 17.7 17.1 C16.6 18.5 14.9 19.4 12.9 19.4 C10.6 19.5 8.6 18.4 7.4 16.7 C6.1 15.1 5.5 12.9 5.8 10.8 C6.1 8.6 7.3 6.7 9.2 5.4 C10.6 4.3 11.9 4.2 12 3.9 L12 3.9 "/><path fill=" none " stroke=" black " stroke-width=". 3 " stroke-opacity=" 1 " filling=" 0 " d=" M12 4.8 L12 4.8 C14.1 5.2 15.8 5.6 17.3 7.3 C18.8 9.1 19.3 11.2 19 13.2 C18.7 15 17.7 16.8 16.5 18 C15.3 19.2 13.7 20.1 12 20.1 C10.3 20.1 8.7 19.2 7.5 18 C6.3 16.8 5.3 15 5 13.2 C4.7 11.2 5.2 9.1 6.7 7.3 C8.2 5.6 10 5.2 12 4.8 L12 4.8 "/><path fill=" none " stroke=" black " stroke-width=". 3 " stroke-opacity=" 1 " filling=" 0 " d=" M12 6.6 L12 6.6 C13.9 6.9 15.5 7.4 16.4 9.3 C17.3 11.1 16.8 13.1 15.7 14.4 C14.5 15.8 12.6 16.6 10.7 16.1 C9 15.7 8.4 14.2 8.2 12.5 C8.1 11.1 8.4 9.4 9.2 8.3 C10.1 7.1 10.7 7 12 6.6 L12 6.6 "/><path fill=" none " stroke=" black " stroke-width=". 3 " stroke-opacity=" 1 " filling=" 0 " d=" M12 8.3 L12 8.3 C13.5 8.6 14.2 8.5 15.2 10 C16.4 11.8 15.7 14.1 14.1 15.4 C12.4 16.6 10.2 16.8 8.4 15.4 C7 14.1 6.7 11.8 7.8 10 C8.8 8.5 10.5 8.6 12 8.3 L12 8.3 "/><path fill=" none " stroke=" black " stroke-width=". 3 " stroke-opacity=" 1 " filling=" 0 " d=" M12 9.3 L12 9.3 C13.3 9.6 13.8 9.5 14.5 11 C15.5 13.1 14 15.7 12 15.7 C9.7 15.7 8.4 13.1 9.5 11 C10.2 9.5 10.7 9.6 12 9.3 L12 9.3 "/></ svg> <svg xmlns=" http :// www . w3 . org/ 2000/ svg " viewBox=" 0 0 24 24 " height=" 200px " width=" 200px "><path fill=" none " stroke=" black " stroke-width=". 3 " stroke-opacity=" 1"/></svg>