<svg xmlns="http://www.w3.org/2000/svg" viewBox="0 0 24 24"><path fill=" none " stroke=" black " stroke-width=". 3 " stroke-opacity=" 1 " filling=" 0 " d=" M12 1.2 L12 1.2 C13.6 1.4 15.1 1.8 16.4 2.6 C17.7 3.3 18.8 4.3 19.7 5.7 C21.2 7.8 21.7 10.2 21.4 12.5 C21.1 14.8 20.1 16.9 18.5 18.5 C16.9 20.1 14.7 21.2 12 21.2 C9.3 21.2 7.1 20.1 5.5 18.5 C3.9 16.9 2.9 14.8 2.6 12.5 C2.3 10.2 2.8 7.8 4.3 5.7 C5.2 4.3 6.3 3.3 7.6 2.6 C9 1.8 10.4 1.4 12 1.2 L12 1.2 "/><path fill=" none " stroke=" black " stroke-width=". 3 " stroke-opacity=" 1 " filling=" 0 " d=" M12 3.9 L12 3.9 C13.8 4.1 15.3 4.5 16.4 6.1 C17.6 7.8 17.6 9.7 16.8 11.3 C15.9 13 14.1 14.2 12 14.2 C9.9 14.2 8.1 13 7.2 11.3 C6.4 9.7 6.4 7.8 7.6 6.1 C8.7 4.5 10.2 4.1 12 3.9 L12 3.9 "/><path fill=" none " stroke=" black " stroke-width=". 3 " stroke-opacity=" 1 " filling=" 0 " d=" M12 4.6 L12 4.6 C13.8 4.8 15.4 5.4 16.4 6.6 C17.4 7.8 17.7 9.4 17.4 11.3 C17.1 12.9 16.1 14.5 15 15.5 C13.9 16.5 12.6 17.3 11.1 17.3 C9.6 17.3 8.1 16.5 7.1 15.5 C5.9 14.4 5.1 12.9 5.1 11.3 C5.1 9.4 6 7.8 7.6 6.6 C8.9 5.4 10.2 4.8 12 4.6 L12 4.6 "/><path fill=" none " stroke=" black " stroke-width=". 3 " stroke-opacity=" 1 " filling=" 0 " d=" M12 6.6 L12 6.6 C13.1 6.8 13.7 6.7 14.5 7.6 C15.8 9.2 15.5 11.5 14.3 12.9 C13.3 14.2 11.6 15.2 10.2 14.4 C8.6 13.6 8.4 12.1 8.8 10.8 C9.3 9.3 10.2 8.2 11.3 7.4 C12.2 6.8 12.6 6.8 12 6.6 L12 6.6 "/><path fill=" none " stroke=" black " stroke-width=". 3 " stroke-opacity=" 1 " filling=" 0 " d=" M12 10.6 L12 10.6 C12.3 10.8 12.6 11.1 12.9 11.3 L12.9 12.7 C12.6 13.2 12.4 13.7 12 13.7 C11.6 13.7 11.4 13.2 11.1 12.7 L11.1 11.3 C11.4 11.1 11.7 10.8 12 10.6 L12 10.6 "/></ svg> <svg xmlns=" http :// www . w3 . org/ 2000/ svg " viewBox=" 0 0 24 24 " height=" 200px " width=" 200px "><path fill=" none " stroke=" black " stroke-width=". 3 " stroke-opacity=" 1 " filling=" 0 " d=" M12 1.2 L12 1.2 C14.2 1.4 16 1.9 17.5 3.2 C19 4.4 19.9 5.9 20.4 7.8 L20.4 12 L20.4 16.2 C20 18.1 19 19.6 17.5 20.4 C15.8 21.3 14.1 21.6 12.4 21.6 C10.7 21.6 9.1 21.3 7.6 20.6 C6.2 20 5.1 18.8 4.4 17.3 C3.8 15.9 3.6 14.3 3.6 12.6 L3.6 7.8 C3.6 5.9 4 4.4 5.5 3 ."/></svg>