<svg xmlns="http://www.w3.org/2000/svg" viewBox="0 0 24 24"><path fill=" none " stroke=" black " stroke-width=". 3 " stroke-opacity=" 1 " filling=" 0 " d=" M11.7 5.8 L11.7 5.8 C14.1 6.2 15.9 7.4 16.4 9.3 C17 10.9 16.3 13 14.8 14.7 L14.8 14.7 C15.2 15.9 15.9 17.5 14.9 18.4 C14.1 19.5 12.7 19.7 11.4 19.7 C9.9 19.7 8.4 19.5 7.1 18.4 C5.6 17.5 5 15.9 5.1 14.7 C4.9 13 4.9 10.9 5.7 9.3 C6.5 7.4 8 6.2 11.7 5.8 L11.7 5.8 "/><path fill=" none " stroke=" black " stroke-width=". 3 " stroke-opacity=" 1 " filling=" 0 " d=" M11.7 6.2 L11.7 6.2 C12 6.4 12.4 6.4 12.7 6.6 C15.1 8.2 13.2 10.3 11.8 11.4 L11.8 11.2 C13.5 11.7 13.8 12.6 14.4 14.8 L14.4 14.8 C14.7 14.9 15 14.9 15.3 14.9 L15.3 14.9 C15.4 14.9 15.4 14.9 15.5 14.9 L15.5 14.9 C16.1 14.9 16.6 14.9 17.1 14.9 L17.1 14.9 C17.3 15.2 17.6 15.6 17.8 16.1 L17.8 16.1 C17.6 16.4 17.4 16.7 17.2 17.1 L16.1 17.8 C15.6 17.6 15.1 17.9 14.9 17 C14.8 16.6 15 16.4 15.2 16.2 L15.2 15.9 C14.4 15.4 13.1 15.1 12.2 15.6 L12.2 15.6 C11.9 15.6 11.6 15.8 11.3 15.9 L11 15.9 C9.6 15.6 8.1 15.9 7.1 14.9 L7.1 14.9 C7.7 13.2 8.1 12.4 9.4 11.1 L9.4 11.1 C9.2 9.4 10 8.4 11.7 6.2 L11.7 6.2 "/><path fill=" none " stroke=" black " stroke-width=". 3 " stroke-opacity=" 1 " filling=" 0 " d=" M12.1 6.2 L12.1 6.2 C13.6 8.1 15.6 9.3 17.1 11.1 C17.6 11.8 18.4 12.1 18.3 12.9 C18.1 14.1 16.5 14.7 15.4 15.2 L15.4 15.2 C14.3 15.8 12.5 16.1 11.1 16.8 L11.1 16.8 C10.1 15.7 9.2 14.7 8.1 13.7 L8.1 13.7 C8.2 12.8 8.3 11.9 8.5 11.1 C9 9.3 10.1 8 12.1 6.2 L12.1 6.2 "/></ svg> <svg xmlns=" http :// www . w3 . org/ 2000/ svg " viewBox=" 0 0 24 24 " height=" 200px " width=" 200px "><path fill=" none " stroke=" black " stroke-width=". 3 " stroke-opacity=" 1 " filling=" 0 " d=" M12.2 3.5 L12.2 3.5 C14.2 3.7 15.8 4.4 16.6 5.5 C17.4 6.5 17.8 8.2 17.8 9.9 L17.8 9.9 C18.8 11.3 19.3 12.7 19.3 14.2 C19.3 15.5 18.8 16.9 17.7 18.1 C16.5 19.3 14.9 20.1 13.4 20.5 L13.4 21 C12.7 20 11.7 18.9 10.8 17.9 C9.8 16.7 8.8 15.5 8.3 14 C7.4 12.2 7.2 10.1 7.9 8.4 C8.6 6.8 9.9 5.5 11.7 4.7 L11.8 3.8 C12.1 3.7 12.3 3.6 12.2 3.5 L12.2 3 ."/></svg>