<svg xmlns="http://www.w3.org/2000/svg" viewBox="0 0 24 24"><path fill=" none " stroke=" black " stroke-width=". 3 " stroke-opacity=" 1 " filling=" 0 " d=" M6.6 3.9 L12 3.9 L17.4 3.9 C19 4.3 19.7 4.9 20.1 6.6 L20.1 12 L20.1 17.4 C19.7 19.1 19.1 19.7 17.4 20.1 L12 20.1 L6.6 20.1 C4.9 19.7 4.3 19.1 3.9 17.4 L3.9 12 L3.9 6.6 C4.3 4.9 4.9 4.3 6.6 3.9 L6.6 3.9 "/><path fill=" none " stroke=" black " stroke-width=". 3 " stroke-opacity=" 1 " filling=" 0 " d=" M6.6 10 L12 10 L17.4 10 L17.4 12 L12 12 L6.6 12 L6.6 10 "/><path fill=" none " stroke=" black " stroke-width=". 3 " stroke-opacity=" 1 " filling=" 0 " d=" M6.6 12 L12 12 L17.4 12 L17.4 13.8 L12 13.8 L6.6 13.8 L6.6 12 "/><path fill=" none " stroke=" black " stroke-width=". 3 " stroke-opacity=" 1 " filling=" 0 " d=" M6.6 14.7 L12 14.7 L17.4 14.7 L17.4 15.6 L12 15.6 L6.6 15.6 L6.6 14.7 "/></ svg> <svg xmlns=" http :// www . w3 . org/ 2000/ svg " viewBox=" 0 0 24 24 " height=" 200px " width=" 200px "><path fill=" none " stroke=" black " stroke-width=". 3 " stroke-opacity=" 1 " filling=" 0 " d=" M14.7 4.9 L14.7 4.9 C16.6 4.7 18.3 4.5 19.9 4.9 C21.6 5.2 22.8 6.2 22.8 8.4 C22.8 9.6 22.3 10.9 21.5 11.4 C20.6 12.1 19.5 12.5 18.1 12.6 C16.7 12.7 15.3 12.4 14.1 12.3 L13.7 12.3 C14.2 12.9 13.9 13.2 13.5 13.6 L13.3 13.7 C13.3 14 13.5 14 13.6 14 L14 14.9 L14.3 15.7 C14.5 18.1 15.4 18.9 14.7 21.3 L14.7 21.3 C14.9 21.3 14.9 21.3 14.9 21.3 L14.6 21.3 C14 21.3 13.2 21.3 12.6 21.3 L11.7 21.3 C11.3 21.3 10.8 21.3 10.5 21.3 L10.2 21.9 C9.9 21.8 9.6 21.8 9.2 21.7 L8.6 16.4 L8.6 13.6 C8.5 13.6 8.4 13.6 8.2 13.6 L5.9 12.7 C5.9 12.7 5.9 12.6 5.9 12.6 L5.1 12.5 C4.9 12.4 4.9 12.3 4.9 12.2 L4.9 11.3 C5.3 11.2 5.6 11.2 5.9 11.1 L6.9 11.3 C7.8 11.2 8.6 11 9.4 11 L9.4 11.6 C9.4 12.5 9.3 13.2 8.8 13.6 C8.4 13.9 7.9 13.9 7.4 14 L6.7 14 L6.7 13.6 C6.6 13.1 6.5 12.7 6.3 12.3 L4.8 9.8 C5.5 9.5 6 9.2 6.5 8.9 L8.1 8.9 C8.7 7.5 9.4 5.8 9.8 4.5 C10.6 3.1 11.6 2.2 13.6 1.2 L13.6 1.2 "/><path fill=" none " stroke=" black " stroke-width=". 3 " stroke-opacity=" 1 " filling=" 0 " d=" M11.3 16.1 L11.3 16.1 C11.8 16.4 12.3 16.7 12.9 16.9 L15.4 17.2 C15.6 17.9 15.8 18.7 15.4 19.5 L12.9 21 C12.2 21.2 11.4 21.2 10.8"/></svg>