<svg xmlns="http://www.w3.org/2000/svg" viewBox="0 0 24 24" height="200px" width="200px"><path fill="none" stroke="black" stroke-width=".3" stroke-opacity="1" filling="0" d="M12.7 7.6 L12.7 8.8 L11.2 9.1 L11.2 7.9 L12.7 7.6"/><path fill="none" stroke="black" stroke-width=".3" stroke-opacity="1" filling="0" d="M6.7 8.3 L6.7 9.5 L7.8 9.5 L7.8 10.8 L6.7 10.8 L6.7 12.9 C7 13.1 7.4 13.2 7.8 13.4 L7.8 14.6 C6.3 14.9 5.8 14.7 5.2 13.3 L5.2 8.6 L6.7 8.3"/><path fill="none" stroke="black" stroke-width=".3" stroke-opacity="1" filling="0" d="M3.2 9.4 L3.2 9.4 C3.7 9.5 4.2 9.6 4.7 9.7 L4.7 11.1 C0.7 10.1 4.6 11.7 4.9 13.1 C5.4 15.3 2.1 14.6 1.3 14.5 L1.3 13.1 C1.8 13.2 2.3 13.5 2.9 13.5 C3.1 13.5 3.5 13.4 3.4 13.2 C2.9 12.2 -0.3 11.6 1.7 9.9 C2.1 9.6 2.7 9.6 3.2 9.4 L3.2 9.4"/><path fill="none" stroke="black" stroke-width=".3" stroke-opacity="1" filling="0" d="M15.8 9.4 L15.8 9.4 C16.2 9.7 16.8 9.7 17.1 10.1 C18.8 12.2 17.4 15.4 14.7 14.4 L14.7 16.1 L13.2 16.4 L13.2 9.5 L14.5 9.5 L14.6 9.9 C15 9.7 15.4 9.6 15.8 9.4 L15.8 9.4"/><path fill="none" stroke="black" stroke-width=".3" stroke-opacity="1" filling="0" d="M20.3 9.4 L20.3 9.4 C22 10.3 22.4 10.6 22.4 12.7 L19.5 12.7 C19.9 13 20.2 13.4 20.7 13.5 C21.1 13.7 21.6 13.3 22.1 13.2 L22.1 14.4 C21 14.7 20.3 15.1 19.2 14.5 C17.8 13.7 17.7 11.4 18.6 10.2 C19 9.7 19.7 9.7 20.3 9.4 L20.3 9.4"/><path fill="none" stroke="black" stroke-width=".3" stroke-opacity="1" filling="0" d="M8.3 9.5 L9.5 9.5 L9.6 10 C10 9.8 10.4 9.7 10.8 9.5 L10.8 10.9 C10.5 11 10.1 11.1 9.7 11.2 L9.7 14.7 L8.3 14.7 L8.3 9.5"/><path fill="none" stroke="black" stroke-width=".3" stroke-opacity="1" filling="0" d="M11.2 9.5 L12.7 9.5 L12.7 14.7 L11.2 14.7 L11.2 9.5"/><path fill="none" stroke="black" stroke-width=".3" stroke-opacity="1" filling="0" d="M20.3 10.6 L20.3 10.6 C20.5 10.9 20.8 11.3 21 11.6 L19.5 11.6 C19.8 11.3 20 10.9 20.3 10.6 L20.3 10.6"/><path fill="none" stroke="black" stroke-width=".3" stroke-opacity="1" filling="0" d="M15.4 10.7 L15.4 10.7 C15.7 11.2 16.3 11.6 16.3 12.1 C16.3 14.1 15.4 13.5 14.7 13.2 L14.7 11 C14.9 10.9 15.2 10.8 15.4 10.7 L15.4 10.7"/></svg>