<svg xmlns="http://www.w3.org/2000/svg" viewBox="0 0 24 24" height="200px" width="200px"><path fill="none" stroke="black" stroke-width=".3" stroke-opacity="1" filling="0" d="M1.2 1.2 L8.4 1.2 L15.6 1.2 L22.8 1.2 L22.8 8.4 L22.8 15.6 L22.8 22.8 L15.6 22.8 L8.4 22.8 L1.2 22.8"/><path fill="none" stroke="black" stroke-width=".3" stroke-opacity="1" filling="0" d="M3.6 2.2 L10.8 2.2 L18 2.2 C18.3 2.5 18.6 2.8 18.9 3.1 L18.9 8.5 L18.9 13.9 L18.9 19.3 C18.7 19.7 18.4 20 18 20.2 L10.8 20.2 L3.6 20.2 C3.2 20 2.8 19.7 2.7 19.3 L2.7 13.9 L2.7 8.5 L2.7 3.1 C2.8 2.7 3.2 2.3 3.6 2.2 L3.6 2.2"/><path fill="none" stroke="black" stroke-width=".3" stroke-opacity="1" filling="0" d="M4.5 4 L10.8 4 L17.1 4 L17.1 11.2 L17.1 18.4 L12.9 13.6 L8.7 8.8 L4.5 4"/><path fill="none" stroke="black" stroke-width=".3" stroke-opacity="1" filling="0" d="M7.2 6.7 L14.4 6.7 L14.4 8.5 L7.2 8.5"/><path fill="none" stroke="black" stroke-width=".3" stroke-opacity="1" filling="0" d="M7.2 10.3 L14.4 10.3 L14.4 12.1 L7.2 12.1"/><path fill="none" stroke="black" stroke-width=".3" stroke-opacity="1" filling="0" d="M7.2 13.9 L14.4 13.9 L14.4 15.7 L7.2 15.7"/></svg>