<svg xmlns="http://www.w3.org/2000/svg" viewBox="0 0 24 24"><path fill=" none " stroke=" black " stroke-width=". 3 " stroke-opacity=" 1 " filling=" 0 " d=" M7.5 4.4 L7.5 4.4 C8.7 4.6 9.9 5.1 10.9 5.9 L10.9 5.9 C12.2 5.3 13.4 4.9 14.6 4.8 C16 4.6 17.4 4.7 18.7 5.3 C20 5.9 21.1 6.9 21.9 8.2 C22.6 9.5 22.9 11.1 22.7 12.7 C22.6 14.4 22.1 15.9 21 17.2 C19.8 18.6 18.2 19.5 16.5 19.9 C14.9 20.2 13.2 20.2 11.4 20.2 C9.7 20.2 8.1 20.2 6.5 19.9 C4.9 19.5 3.4 18.6 2.2 17.2 C1 15.9 0.5 14.4 0.4 12.7 C0.3 11.1 0.8 9.5 2.2 8.2 C3.4 6.9 4.9 5.9 6.5 5.3 C7.4 5.1 8.4 4.6 9.3 4.4 C10.2 4.1 10.8 4.2 11.7 4.1 L11.7 4.1 C12.7 4.1 13.6 4.2 14.4 4.4 L14.4 4.4 "/><path fill=" none " stroke=" black " stroke-width=". 3 " stroke-opacity=" 1 " filling=" 0 " d=" M11.7 6.7 L11.7 6.7 C13.8 7.1 15.5 7.9 16.4 9.6 C17.3 11.2 17.2 13.1 16.4 14.7 C15.6 16.2 14.2 17.3 12.2 17.4 C10.1 17.5 8.3 16.4 7.4 14.7 C6.6 13.1 6.6 11.2 7.7 9.6 C8.8 7.9 10.3 7.1 11.7 6.7 L11.7 6.7 "/><path fill=" none " stroke=" black " stroke-width=". 3 " stroke-opacity=" 1 " filling=" 0 " d=" M11.7 7.3 L12.3 7.3 L12.3 7.9 C14.1 8.6 15.4 9.3 16.3 11.1 C17.2 12.7 17.2 14.6 16.4 16.3 C15.5 18.1 13.7 19.2 11.7 19.2 C9.7 19.2 7.9 18.1 6.8 16.3 C5.8 14.6 5.7 12.7 6.5 11.1 C7.3 9.3 9 8.6 11.7 7.9 L11.7 7.3 "/><path fill=" none " stroke=" black " stroke-width=". 3 " stroke-opacity=" 1 " filling=" 0 " d=" M11.7 8.4 L11.7 8.4 C12.3 8.6 12.9 8.8 13.4 9.2 L13.4 9.2 C13.8 9.2 14.3 9.1 14.7 9.2 C15 9.4 14.8 9.9 14.7 10.3 L14.7 10.3 C14.2 11.9 13.4 13.3 12.1 14.6 L12.1 14.6 C11.8 14.9 11.6 15.2 11.3 15.6 L11.3 15.6 C11.3 15.2 11.4 14.9 11.4 14.6 L11.4 14.6 C11.4 14.1 11.3 13.6 11.3 13 L11.3 13 C11.1 11.1 10.5 9.4 11.7 8.4 L11.7 8.4 "/></ svg> <svg xmlns=" http :// www . w3 . org/ 2000/ svg " viewBox=" 0 0 24 24 " height=" 200px " width=" 200px "><path fill=" none " stroke=" black " stroke-width=". 3 " stroke-opacity=" 1 " filling=" 0 " d=" M8.6 3.9 L8.6 3.9 C9.2 4.1 9.8 4.1 10.2 4.5 C12.1 6.1 9.8 8.2 8.6 8.9 L8.6 8.9 C7.2 9.4 5.2 9.8 3.3 9.4 L3.3 9.4 C4.4 9.1 5.7"/></svg>