<svg xmlns="http://www.w3.org/2000/svg" viewBox="0 0 24 24"><path fill=" none " stroke=" black " stroke-width=". 3 " stroke-opacity=" 1 " filling=" 0 " d=" M12 1.2 L12 1.2 C13.9 1.4 15.8 1.8 17.4 2.7 C18.9 3.6 20.3 4.8 21.3 6.5 C22.4 8.3 22.8 10.2 22.8 12.1 C22.7 13.9 22.2 15.7 21.3 17.3 C20.4 18.9 19.1 20.3 17.5 21.3 C15.9 22.2 14 22.8 12 22.8 C10 22.8 8.1 22.2 6.5 21.3 C4.9 20.3 3.6 18.9 2.7 17.3 C1.8 15.7 1.3 13.9 1.2 12.1 C1.2 10.2 1.6 8.3 2.7 6.5 C3.7 4.8 5.1 3.6 6.6 2.7 C8.2 1.8 10.1 1.4 12 1.2 L12 1.2 "/><path fill=" none " stroke=" black " stroke-width=". 3 " stroke-opacity=" 1 " filling=" 0 " d=" M12 3.2 L12 3.2 C13.8 3.5 15.2 4.2 16.1 5.5 C16.8 6.7 16.8 8.3 15.9 9.7 C15.2 10.9 13.9 11.8 12 11.8 C10.1 11.8 8.8 10.9 8.1 9.7 C7.2 8.3 7.2 6.7 7.9 5.5 C8.8 4.2 10.2 3.5 12 3.2 L12 3.2 "/><path fill=" none " stroke=" black " stroke-width=". 3 " stroke-opacity=" 1 " filling=" 0 " d=" M12 4.6 L12 4.6 C13.6 4.8 15 5.3 15.9 6.4 C17 7.5 17.4 9.1 17.2 10.8 C17 12.4 16.1 13.9 15.1 15.2 L15.1 15.2 C16.1 15.5 17.1 15.7 17.9 16.4 C19.5 18.2 18.5 20.3 16.9 20.8 C15.3 21.4 13.4 20.8 12.3 19.4 C11.1 18.2 10.5 16.7 10.5 15.2 L10.5 15.2 C9.4 13.9 8.8 12.4 8.6 10.8 C8.4 9.1 8.6 7.5 9.7 6.4 C10.8 5.3 11.4 4.8 12 4.6 L12 4.6 "/><path fill=" none " stroke=" black " stroke-width=". 3 " stroke-opacity=" 1 " filling=" 0 " d=" M12 5.4 L12 5.4 C12.6 5.6 13.2 5.6 13.7 5.9 C15.3 7.2 14.1 9.5 12 9.5 C10 9.5 8.7 7.2 10.3 5.9 C10.8 5.6 11.4 5.6 12 5.4 L12 5.4 "/><path fill=" none " stroke=" black " stroke-width=". 3 " stroke-opacity=" 1 " filling=" 0 " d=" M12 9.5 L12 9.5 C13.1 9.8 13.7 9.8 14.3 10.9 C15.3 12.8 14.1 15.2 12 15.2 C9.9 15.2 8.7 12.8 9.7 10.9 C10.3 9.8 10.9 9.8 12 9.5 L12 9.5 "/><path fill=" none " stroke=" black " stroke-width=". 3 " stroke-opacity=" 1 " filling=" 0 " d=" M12 13.4 L12 13.4 C13.2 13.7 14.1 14.1 14.7 15.2 C15.3 16.5 15 18.6 12.9 18.6 C11.1 18.6 10.5 16.5 10.7 15.2 C11 14.1 11.5 13.7 12 13.4 L12 13.4 "/></ svg> <svg xmlns=" http :// www . w3 . org/ 2000/ svg " viewBox=" 0 0 24 24 " height=" 200px " width=" 200px "><path fill=" none " stroke=" black " stroke-width=". 3 " stroke-opacity=" 1 " filling=" 0 " d=" M11.7 2.1 L11.7 2.1 C13.3 2 ."/></svg>