<svg xmlns="http://www.w3.org/2000/svg" viewBox="0 0 24 24"><path fill=" none " stroke=" black " stroke-width=". 3 " stroke-opacity=" 1 " filling=" 0 " d=" M12.6 1.2 L14.3 1.2 L14.3 5.6 L14.3 9.4 L18.7 9.4 L22.8 9.4 L22.8 13.3 L18.7 13.3 L12.6 13.3 L12.6 18.8 L12.6 22.8 L9.7 22.8 L9.7 19.3 L5.3 19.3 L1.2 15.8 L1.2 13.1 L5.3 13.1 L9.7 13.1 L9.7 9.7 L9.7 5.7 L12.6 5.7 L12.6 1.2 "/><path fill=" none " stroke=" black " stroke-width=". 3 " stroke-opacity=" 1 " filling=" 0 " d=" M2.7 3.7 L2.7 3.7 C4.7 4.3 6.5 5 8.4 5.9 L8.7 8.8 L5.8 8.8 L5.8 13.3 L2.7 13.3 L2.7 8.8 L1.2 8.8 L1.2 3.7 "/><path fill=" none " stroke=" black " stroke-width=". 3 " stroke-opacity=" 1 " filling=" 0 " d=" M10.1 10.1 L10.1 10.1 C10.7 10.4 11.4 10.9 11.2 11.8 L10.8 12.1 C10.5 11.3 10.1 10.6 10.1 10.1 L10.1 10.1 "/><path fill=" none " stroke=" black " stroke-width=". 3 " stroke-opacity=" 1 " filling=" 0 " d=" M15.6 10.1 L15.6 10.1 C17.4 10.8 18.4 11.6 19.1 12.9 C19.9 14.4 20 16.1 19.7 17.8 L16.8 21.3 L12.9 21.3 L12.9 16.3 L14.6 16.3 L14.6 18.7 L8.5 18.7 L8.5 16 L11.6 16 L11.6 19.2 L13.7 19.2 L13.7 14.7 L14.6 14.7 L14.6 19.6 L12.9 19.6 L12.9 14.7 L13.6 14.7 L13.6 17 L16.8 17 L16.8 12 L16.8 12.7 C17 12.2 17.5 11.5 17.6 11 C17.7 9.9 15.7 11.8 15.7 11.7 L15.6 10.1 "/></ svg> <svg xmlns=" http :// www . w3 . org/ 2000/ svg " viewBox=" 0 0 24 24 " height=" 200px " width=" 200px "><path fill=" none " stroke=" black " stroke-width=". 3 " stroke-opacity=" 1 " filling=" 0 " d=" M10.2 8.7 L10.2 8.7 C11 9.3 11.5 10.2 10.1 11.1 L10.1 11.1 C8.5 9.8 9 9.3 10.2 8.7 L10.2 8.7 "/><path fill=" none " stroke=" black " stroke-width=". 3 " stroke-opacity=" 1 " filling=" 0 " d=" M1.2 12 L1.2 12 C1.4 10.1 1.8 8.2 2.7 6.6 C3.5 5.1 4.8 3.7 6.5 2.7 C8.3 1.6 10.2 1.2 12.1 1.2 C13.9 1.3 15.7 1.8 17.3 2.7 C18.9 3.6 20.3 4.9 21.3 6.5 C22.2 8.1 22.8 10 22.8 12 C22.8 14 22.2 15.9 21.3 17.5 C20.3 19.1 18.9 20.4 17.3 21.3 C15.7 22.2 13.9 22.7 12.1 22.8 C10.2 22.8 8.3 22.4 6.5 21.3 C4.8 20.3 3.5 18.9 2.7 17.4 C1.8 15.8 1.4 13.9 1.2 12 L1.2 12 "/><path fill=" none " stroke=" black " stroke-width=". 3 " stroke-opacity=" 1 " filling=" 0 " d=" M11.9 14.4 L12 14.4 C14.4 14.6 15.7 15.1 17.5 16.4 L15.1 18.1 C14.6 17.2 14.1 16.2 13.6 15.3 C12"/></svg>