<svg xmlns="http://www.w3.org/2000/svg" viewBox="0 0 24 24"><path fill=" none " stroke=" black " stroke-width=". 3 " stroke-opacity=" 1 " filling=" 0 " d=" M11.6 3.3 L11.6 3.3 C12 3.3 12.4 3.3 12.8 3.3 L13.6 7.2 C15.1 7.4 16.6 7.1 17.8 6.2 L18.7 5.9 C18.6 7.9 18.2 9.7 17.3 11.4 C16.3 13.1 14.9 14.3 13.7 15.9 L12.6 17.6 L11.1 15.7 C10.9 14.3 10.3 13.2 9.8 11.9 C8.9 10.6 8.1 9 7.5 7.5 C6.8 6.1 6.9 4.2 7.9 2.7 L8.3 3.4 C8.2 4 8.2 4.5 8.2 5 C8.1 7.7 8.1 9.8 8.1 12 L8.1 12 C8.4 13.2 8.7 14.3 9.7 15.7 L7.3 18.1 C5.4 17.1 4.1 15.1 3.5 13.1 C2.9 11.1 3.1 8.9 4.1 6.8 C5.1 4.7 6.8 3.4 9.2 3.3 L11.6 3.3 "/><path fill=" none " stroke=" black " stroke-width=". 3 " stroke-opacity=" 1 " filling=" 0 " d=" M9.5 4.7 L9.5 4.7 C9.7 5.1 10 5.4 10.1 5.8 L9.4 8.3 L10.6 8.3 C10 7.4 9.7 6.6 9.5 5.8 L9.5 4.7 "/></ svg> <svg xmlns=" http :// www . w3 . org/ 2000/ svg " viewBox=" 0 0 24 24 " height=" 200px " width=" 200px "><path fill=" none " stroke=" black " stroke-width=". 3 " stroke-opacity=" 1 " filling=" 0 " d=" M2.1 6.5 L8.2 6.5 L13.9 6.5 L19.8 6.5 L19.8 11.4 L19.8 16.9 L12.8 16.9 L6.7 16.9 L6.7 11.5 L6.7 6.5 L2.1 6.5 "/><path fill=" none " stroke=" black " stroke-width=". 3 " stroke-opacity=" 1 " filling=" 0 " d=" M11.4 9.3 L11.4 9.3 C12.9 9.4 13.9 9.7 14.6 11 C15.1 11.9 15.1 13.2 14.8 14.2 C14.4 15.2 13.5 15.9 11.8 15.6 C10 15.1 9.1 13.2 8.8 11.4 C8.6 10.1 9.1 9.5 10.1 9.3 C10.9 9.2 11.5 9.3 11.4 9.3 L11.4 9.3 "/><path fill=" none " stroke=" black " stroke-width=". 3 " stroke-opacity=" 1 " filling=" 0 " d=" M10.8 10.4 L10.8 10.4 C11.2 10.9 12.8 12.3 11.6 13.2 C10.4 13.9 9.5 11.6 10.8 10.4 L10.8 10.4 "/><path fill=" none " stroke=" black " stroke-width=". 3 " stroke-opacity=" 1 " filling=" 0 " d=" M13.8 10.4 L13.8 10.4 C15.1 10.9 15.7 11.8 14.8 12.8 C14.4 13.2 12.6 13.3 12.5 13.2 C12.2 12.9 13.3 10.9 13.8 10.4 L13.8 10.4 "/><path fill=" none " stroke=" black " stroke-width=". 3 " stroke-opacity=" 1 " filling=" 0 " d=" M10.9 10.7 L10.9 10.7 C11.1 11.2 11.2 11.7 11.3 12.2 C11.3 13.1 10.4 14 10 14.7 C9.9 15.4 10.2 16.2 10.8 16.7 C11.2 17.5 11.1 16.8 11.1 16.9 C11.1 17.4 13.7 18.5 13.5 20 C12.9 20.5 12.6 21.8 11.4 21.8 C10 21.8 9 20.5 8.5 19.6 C7.7"/></svg>