<svg xmlns="http://www.w3.org/2000/svg" viewBox="0 0 24 24"><path fill=" none " stroke=" black " stroke-width=". 3 " stroke-opacity=" 1 " filling=" 0 " d=" M12 2.1 L12 2.1 C13.5 2.3 14.9 2.7 16.2 3.4 C17.4 4.1 18.4 5.1 19.2 6.5 C20.1 8.1 20.5 9.8 20.4 11.6 C20.3 13.4 19.7 15.1 18.8 16.6 C17.9 18.1 16.7 19.4 15.3 20.4 C14.2 21.2 13.2 21.9 12 21.9 C10.8 21.9 9.8 21.2 8.7 20.4 C7.3 19.4 6.1 18.1 5.2 16.6 C4.3 15.1 3.7 13.4 3.6 11.6 C3.5 9.8 3.9 8.1 4.8 6.5 C5.6 5.1 6.6 4.1 7.8 3.4 C9.1 2.7 10.5 2.3 12 2.1 L12 2.1 "/><path fill=" none " stroke=" black " stroke-width=". 3 " stroke-opacity=" 1 " filling=" 0 " d=" M11.3 9.3 L11.3 9.3 C11.6 9.7 12 10 12.3 10.4 L12.3 12.3 L16.5 12.3 C16.8 12.6 17.1 12.8 17.4 13.1 L17.4 15.6 C17.1 15.9 16.8 16.3 16.5 16.5 L12.3 16.5 L12.3 17.4 C12.1 17.7 11.9 17.7 11.7 17.4 L11.7 16.5 L7.5 16.5 C7.2 16.3 6.9 15.9 6.6 15.6 L6.6 13.1 C6.9 12.8 7.2 12.6 7.5 12.3 L11.7 12.3 L11.7 10.4 C11.5 10 11.4 9.7 11.3 9.3 L11.3 9.3 "/></ svg> <svg xmlns=" http :// www . w3 . org/ 2000/ svg " viewBox=" 0 0 24 24 " height=" 200px " width=" 200px "><path fill=" none " stroke=" black " stroke-width=". 3 " stroke-opacity=" 1 " filling=" 0 " d=" M22.8 1.2 L22.8 8.4 L22.8 15.6 L22.8 22.8 L15.6 22.8 L8.4 22.8 L1.2 22.8 L1.2 15.6 L1.2 8.4 L1.2 1.2 "/><path fill=" none " stroke=" black " stroke-width=". 3 " stroke-opacity=" 1 " filling=" 0 " d=" M3.9 2.6 L9.3 2.6 L14.7 2.6 L20.1 2.6 L20.1 8.4 L20.1 14.7 L20.1 21.5 L14.7 21.5 L9.3 21.5 L3.9 21.5 L3.9 14.7 L3.9 8.4 L3.9 2.6 "/><path fill=" none " stroke=" black " stroke-width=". 3 " stroke-opacity=" 1 " filling=" 0 " d=" M5.2 3.9 L12 3.9 L18.8 3.9 L18.8 9.3 L18.8 14.7 L18.8 20.1 L12 20.1 L5.2 20.1 L5.2 14.7 L5.2 9.3 L5.2 3.9 "/><path fill=" none " stroke=" black " stroke-width=". 3 " stroke-opacity=" 1 " filling=" 0 " d=" M9.3 4.6 L14.7 4.6 L14.7 7.5 L9.3 7.5 L9.3 4.6 "/><path fill=" none " stroke=" black " stroke-width=". 3 " stroke-opacity=" 1 " filling=" 0 " d=" M9.3 9.3 L14.7 9.3 L14.7 14.7 L9.3 14.7 L9.3 9.3 "/><path fill=" none " stroke=" black " stroke-width=". 3 " stroke-opacity=" 1 " filling=" 0 " d=" M9.3 10.6 L14.7 10.6 L14.7 14.7 L9.3 14.7 L9.3 10.6 "/><path fill=" none " stroke=" black " stroke-width=". 3 " stroke-opacity=" 1 " filling=" 0 " d=" M9.3 11.1 L14.7 11.1 L14.7 14 ."/></svg>