<svg xmlns="http://www.w3.org/2000/svg" viewBox="0 0 24 24"><path fill=" none " stroke=" black " stroke-width=". 3 " stroke-opacity=" 1 " filling=" 0 " d=" M11.8 3.6 L11.8 3.6 C13.4 3.9 14.7 4.6 15.7 5.7 C16.6 6.7 17.1 8.1 17.2 9.6 C17.4 11.2 16.7 12.7 15.9 13.9 C15.1 15.2 13.9 16.2 12.8 16.7 C11.8 17.3 10.8 17.1 10.6 16.1 L10.6 16.1 C10.6 18.3 11.2 19.1 12.6 19 C13.9 18.8 15.1 17.8 15.9 16.6 L15.9 16.6 C15.7 16.4 15.6 16.2 15.6 16 L15.6 16 C14.7 17.6 13.3 18.4 11.7 18.7 C10.2 19 8.7 18.7 7.2 17.8 C4.9 16.5 3.5 14.5 3.1 12.5 C2.8 10.5 3.2 8.5 4.6 6.9 C5.3 6.1 6.3 5.4 7.2 4.8 C8.3 4 9.6 3.8 11.2 3.6 L11.2 3.6 "/><path fill=" none " stroke=" black " stroke-width=". 3 " stroke-opacity=" 1 " filling=" 0 " d=" M15.5 9.9 L15.5 9.9 C15.6 9.9 15.6 9.9 15.7 9.9 L15.7 9.9 C15.6 9.9 15.6 9.9 15.6 9.9 L15.6 9.9 C15.6 9.9 15.6 9.9 15.6 9.9 L15.6 9.9 C15.6 9.9 15.6 9.9 15.6 9.9 L15.6 9.9 C15.6 9.9 15.6 9.9 15.6 9.9 L15.6 9.9 C15.6 9.9 15.6 9.9 15.6 9.9 L15.6 9.9 C15.6 9.9 15.6 9.9 15.6 9.9 L15.6 9.9 C15.6 9.9 15.6 9.9 15.6 9.9 L15.5 9.9 C15.6 9.9 15.6 9.9 15.6 9.9 L15.6 9.9 C15.6 9.9 15.6 9.9 15.6 9.9 L15.6 9.9 C15.6 9.9 15.6 9.9 15.7 9.9 L15.7 9.9 C15.6 9.9 15.6 9.9 15.6 9.9 L15.6 9.9 C15.6 9.9 15.6 9.9 15.6 9.9 L15.6 9.9 C15.6 9.9 15.6 9.9 15.6 9.9 L15.6 9.9 C15.6 9.9 15.6 9.9 15.6 9.9 L15.6 9.9 C15.6 9.9 15.6 9.9 15.6 9.9 L15.6 9.9 C15.6 9.9 15.6 9.9 15.6 9.9 L15.6 9.9 C15.6 9.9 15.6 9.9 15.6 9.9 L15.6 9.9 C15.6 9.9 15.6 9.9 15.6 9.9 L15.6 9.9 C15.6 9.9 15.6 9.9 15.6 9.9 L15.6 9.9 C15.6 9.9 15.6 9.9 15.5 9.9 L15.5 9.9 C15.6 9.9 15.6 9.9 15.6 9.9 L15.6 9.9 C14.9 9.9 14.5 9.9 14.1 9.9 L14.1 9.9 C13.9 9.9 13.7 9.9 13.5 9.9 L13.5 9.9 C13.5 9.9 13.5 9.9 13.5 9.9 L13.5 9.9 C13.5 9.9 13.6 9.9 13.7 9.9 L13.7 9.9 C13.6 9.9 13.6 9.9 13.7 9.9 L13.7 9.9 C13.6 9.9 13.5 9.9 13.5 9.9 L13 ."/></svg>